<?xml version="1.0" standalone="no"?><!DOCTYPE svg PUBLIC "-//W3C//DTD SVG 1.1//EN" "http://www.w3.org/Graphics/SVG/1.1/DTD/svg11.dtd"><svg t="1729661614858" class="icon" viewBox="0 0 1181 1024" version="1.1" xmlns="http://www.w3.org/2000/svg" p-id="18398" xmlns:xlink="http://www.w3.org/1999/xlink" width="73.8125" height="64"><path d="M699.60122 488.370933c8.1523 6.852658 12.208758 14.729276 12.208758 23.629855 0 8.900578-4.056458 16.777197-12.208758 23.629854L129.649134 1013.741361a42.533738 42.533738 0 0 1-28.119527 10.239603 42.533738 42.533738 0 0 1-28.158909-10.239603L12.248141 962.385811c-8.1523-6.852658-12.248141-14.729276-12.248141-23.629855 0-8.861195 4.095841-16.737813 12.208758-23.590471L492.958144 512.000788 12.208758 108.796707C4.095841 101.944049 0 94.067431 0 85.166853c0-8.861195 4.095841-16.737813 12.208758-23.590471L73.410081 10.299598A42.533738 42.533738 0 0 1 101.529607 0.020611c10.594051 0 19.967227 3.426329 28.119527 10.239604L699.60122 488.370933z m469.643354 0c8.1523 6.852658 12.248141 14.729276 12.248141 23.629855 0 8.900578-4.095841 16.777197-12.208758 23.629854L599.253105 1013.741361a42.533738 42.533738 0 0 1-28.119527 10.239603 42.533738 42.533738 0 0 1-28.119526-10.239603l-61.16194-51.316167c-8.1523-6.852658-12.208758-14.729276-12.208758-23.629855 0-8.861195 4.056458-16.737813 12.208758-23.590471L962.562115 512.000788 481.891495 108.796707c-8.1523-6.852658-12.208758-14.729276-12.208758-23.629854 0-8.861195 4.056458-16.737813 12.208758-23.590471L543.053435 10.299598A42.533738 42.533738 0 0 1 571.172962 0.020611c10.633434 0 19.967227 3.426329 28.119526 10.239604L1169.283957 488.370933z" fill="#4D4D4D" p-id="18399"></path></svg>