<?xml version="1.0" standalone="no"?><!DOCTYPE svg PUBLIC "-//W3C//DTD SVG 1.1//EN" "http://www.w3.org/Graphics/SVG/1.1/DTD/svg11.dtd"><svg t="1729057428728" class="icon" viewBox="0 0 1024 1024" version="1.1" xmlns="http://www.w3.org/2000/svg" p-id="5080" xmlns:xlink="http://www.w3.org/1999/xlink" width="64" height="64"><path d="M711.3 983.8C772.3 958 827 921 874 874s83.9-101.8 109.7-162.7c26.7-63.1 40.3-130.2 40.3-199.3s-13.5-136.2-40.3-199.3C958 251.7 921 197 874 150S772.3 66 711.3 40.3C648.2 13.5 581.1 0 512 0S375.8 13.5 312.7 40.3C251.7 66 197 103 150 150S66 251.7 40.3 312.7C13.5 375.8 0 442.9 0 512s13.5 136.2 40.3 199.3C66 772.3 103 827 150 874s101.8 83.9 162.7 109.7c63.1 26.7 130.2 40.3 199.3 40.3s136.2-13.5 199.3-40.2zM305.5 623.5c-14.1 14.1-36.9 14.1-50.9 0-7-7-10.5-16.2-10.5-25.5s3.5-18.4 10.5-25.5l231.9-231.9c14.1-14.1 36.9-14.1 50.9 0l232 232c14.1 14.1 14.1 36.9 0 50.9-14.1 14.1-36.9 14.1-50.9 0L512 416.9 305.5 623.5z" fill="#D70C0C" p-id="5081"></path></svg>