<?xml version="1.0" standalone="no"?><!DOCTYPE svg PUBLIC "-//W3C//DTD SVG 1.1//EN" "http://www.w3.org/Graphics/SVG/1.1/DTD/svg11.dtd"><svg t="1730747188989" class="icon" viewBox="0 0 1170 1024" version="1.1" xmlns="http://www.w3.org/2000/svg" p-id="6004" xmlns:xlink="http://www.w3.org/1999/xlink" width="73.125" height="64"><path d="M1170.285714 987.428571a36.571429 36.571429 0 0 1-36.571428 36.571429H36.571429a36.571429 36.571429 0 0 1-36.571429-36.571429 35.730286 35.730286 0 0 1 5.412571-17.92l-0.512-0.365714 548.571429-950.857143 0.512 0.365715a35.364571 35.364571 0 0 1 62.171429 0l0.512-0.365715 548.571428 950.857143-0.512 0.365714A35.730286 35.730286 0 0 1 1170.285714 987.428571zM585.142857 109.714286L99.876571 950.857143h970.532572z m0 621.714285a73.142857 73.142857 0 1 1-73.142857 73.142858 73.142857 73.142857 0 0 1 73.142857-73.142858z m0-73.142857c-40.411429 0-73.142857-215.771429-73.142857-256a73.142857 73.142857 0 0 1 146.285714 0c0 40.228571-32.731429 256-73.142857 256z" fill="#03481E" p-id="6005"></path></svg>