<?xml version="1.0" standalone="no"?><!DOCTYPE svg PUBLIC "-//W3C//DTD SVG 1.1//EN" "http://www.w3.org/Graphics/SVG/1.1/DTD/svg11.dtd"><svg t="1728204594508" class="icon" viewBox="0 0 1024 1024" version="1.1" xmlns="http://www.w3.org/2000/svg" p-id="1946" xmlns:xlink="http://www.w3.org/1999/xlink" width="64" height="64"><path d="M304.045497 0.287937a15.9965 15.9965 0 0 0-15.996501 15.9965v287.937005a15.9965 15.9965 0 0 0 15.996501 15.9965h111.911515c0 123.109066-0.31993 193.333702-5.822726 236.620232-5.75874 45.590026-16.156465 65.873588-39.99125 107.112566l-4.734964 8.190208H336.038497a15.9965 15.9965 0 0 0-15.9965 15.9965v287.937005a15.9965 15.9965 0 0 0 15.9965 15.9965h48.181459a15.9965 15.9965 0 0 0 4.926922-0.735839 191.958003 191.958003 0 0 0 213.201356 0.479895 15.9965 15.9965 0 0 0 0.63986-0.383916 15.9965 15.9965 0 0 0 4.543006 0.63986H655.968502a15.9965 15.9965 0 0 0 15.996501-15.9965v-287.937005a15.9965 15.9965 0 0 0-15.996501-15.9965h-29.369574l-4.734964-8.190208c-23.834785-41.270971-34.232511-61.52254-39.991251-107.112566-5.470803-43.28653-5.790733-113.511166-5.822726-236.620232H687.961503a15.9965 15.9965 0 0 0 15.9965-15.9965v-287.937005a15.9965 15.9965 0 0 0-15.9965-15.9965h-63.986001a15.9965 15.9965 0 0 0-14.300871 8.798075l-11.581467 23.194926h-28.217826l-11.581466-23.194926A15.9965 15.9965 0 0 0 543.993001 0.287937h-95.979002a15.9965 15.9965 0 0 0-14.300871 8.798075l-11.581466 23.194926h-28.217827l-11.581466-23.194926A15.9965 15.9965 0 0 0 368.031498 0.287937h-63.986001z m15.9965 31.993001h38.103663l11.581467 23.130939a15.9965 15.9965 0 0 0 14.300871 8.862061h47.989501a15.9965 15.9965 0 0 0 14.300871-8.862061l11.581466-23.130939h76.207327l11.581467 23.130939a15.9965 15.9965 0 0 0 14.300871 8.862061H607.979002a15.9965 15.9965 0 0 0 14.300871-8.862061l11.581466-23.130939H671.965003v63.986001H320.041997v-63.986001z m0 95.979001h351.923006v159.965003H320.041997v-159.965003z m175.961503 31.993001c-26.330239 0-47.989501 21.659261-47.989501 47.9895 0 26.298246 21.659261 47.989501 47.989501 47.989501s47.989501-21.691254 47.989501-47.989501c0-26.330239-21.659261-47.989501-47.989501-47.9895z m0 31.993c9.022026 0 15.9965 6.974474 15.9965 15.9965 0 9.022026-6.974474 15.9965-15.9965 15.996501a15.772549 15.772549 0 0 1-15.996501-15.996501c0-9.022026 6.974474-15.9965 15.996501-15.9965z m-48.373417 127.972002h96.746834c0 120.069731-0.127972 194.197513 5.75874 240.619357 5.822726 46.229886 18.395975 73.839845 39.67132 111.303649h-187.606955c21.275345-37.463804 33.848595-65.073763 39.671321-111.303649 5.886712-46.389851 5.75874-120.549626 5.75874-240.619357z m32.376916 31.993001v255.944004h31.993001v-255.944004h-31.993001z m-127.972002 351.923006h287.937005v255.944004h-32.440902a15.9965 15.9965 0 0 0-9.437936 2.943356 15.9965 15.9965 0 0 0-13.469053 2.175524 159.805038 159.805038 0 0 1-180.120593-1.91958 15.9965 15.9965 0 0 0-8.926047-3.007342v0.063986a15.9965 15.9965 0 0 0-5.43881 0.799825 15.9965 15.9965 0 0 0-5.918705-1.055769H352.034997v-255.944004z m143.968503 31.993a112.231446 112.231446 0 0 0-111.975502 111.975502c0 61.650512 50.32499 111.975502 111.975502 111.975502s111.975502-50.32499 111.975502-111.975502-50.32499-111.975502-111.975502-111.975502z m0 31.993001c44.374292 0 79.982501 35.60821 79.982501 79.982501s-35.60821 79.982501-79.982501 79.982501a79.726557 79.726557 0 0 1-79.982502-79.982501c0-44.374292 35.60821-79.982501 79.982502-79.982501z" p-id="1947" fill="#7D7D7E"></path></svg>