<?xml version="1.0" standalone="no"?><!DOCTYPE svg PUBLIC "-//W3C//DTD SVG 1.1//EN" "http://www.w3.org/Graphics/SVG/1.1/DTD/svg11.dtd"><svg t="1728204601557" class="icon" viewBox="0 0 1024 1024" version="1.1" xmlns="http://www.w3.org/2000/svg" p-id="2212" xmlns:xlink="http://www.w3.org/1999/xlink" width="64" height="64"><path d="M208.256009 159.999995c-26.143999 0-47.743999 21.567999-47.743998 47.711999v160.575994a47.999999 47.999999 0 0 0 47.743998 47.679999h288.543991c26.175999 0 47.679999-21.535999 47.679999-47.679999V207.679994A47.999999 47.999999 0 0 0 496.832 159.999995H208.256009z m0 31.999999h288.543991c8.96 0 15.68 6.752 15.68 15.712v160.575994c0 8.96-6.72 15.68-15.68 15.68H208.256009a15.36 15.36 0 0 1-15.743999-15.68V207.679994c0-8.96 6.752-15.744 15.743999-15.744z" p-id="2213" fill="#7D7D7E"></path><path d="M540.063999 223.999993c-16.511999 0-27.551999 14.784-27.551999 29.599999v68.799998c0 14.816 11.04 29.567999 27.551999 29.567999h104.959997c16.479999 0 27.487999-14.72 27.487999-29.567999v-68.799998c0-14.816-11.008-29.631999-27.519999-29.631999h-104.927997z m4.448 31.999999h95.999997v63.999998h-95.999997V255.999992z" p-id="2214" fill="#7D7D7E"></path><path d="M640.511996 271.999992v31.999999h223.999993v-31.999999h-223.999993z" p-id="2215" fill="#7D7D7E"></path><path d="M848.511989 239.999993a16 16 0 0 0-15.999999 15.999999v63.999998a16 16 0 0 0 15.999999 16h95.999997a16 16 0 0 0 16-16V255.999992a16 16 0 0 0-16-15.999999h-95.999997z m16 31.999999h63.999998v31.999999h-63.999998v-31.999999zM144.512011 191.999994c-26.335999 0-47.999999 21.663999-47.999998 47.999999v95.999997c0 26.271999 21.663999 47.999999 47.999998 47.999998h31.999999a16 16 0 1 0 0-31.999999h-31.999999a15.616 15.616 0 0 1-15.999999-15.999999v-95.999997c0-9.184 6.848-16 15.999999-16h31.999999a16 16 0 1 0 0-31.999999h-31.999999zM384.512004 415.999987c0-17.471999-14.56-31.999999-31.999999-31.999999h-127.999996c-17.471999 0-31.999999 14.528-31.999999 31.999999v63.999998c0 17.407999 14.528 31.999999 31.999999 31.999999h127.999996c17.439999 0 31.999999-14.592 31.999999-31.999999v-63.999998z m-31.999999 0v63.999998h-127.999996v-63.999998h127.999996z" p-id="2216" fill="#7D7D7E"></path><path d="M240.512008 479.999985a16 16 0 0 0-15.999999 16v223.999993a16 16 0 0 0 15.999999 15.999999h79.999998a16 16 0 0 0 15.999999-14.848l16-223.999993a16 16 0 0 0-16-17.183999h-95.999997z m16 31.999999h62.815998l-13.696 191.999994H256.512008v-191.999994z" p-id="2217" fill="#7D7D7E"></path><path d="M272.320007 705.919978a16 16 0 0 0-15.807999 16.191999v77.855998c0 18.015999-14.016 31.999999-31.999999 31.999999H112.256012a16 16 0 1 0 0 31.999999h112.255997c35.167999 0 63.999998-28.799999 63.999998-63.999998v-77.855998a16 16 0 0 0-16.192-16.191999z" p-id="2218" fill="#7D7D7E"></path><path d="M256.512008 175.999995v223.999993h31.999999v-223.999993h-31.999999zM320.512006 175.999995v223.999993h31.999999v-223.999993h-31.999999z" p-id="2219" fill="#7D7D7E"></path></svg>