<?xml version="1.0" standalone="no"?><!DOCTYPE svg PUBLIC "-//W3C//DTD SVG 1.1//EN" "http://www.w3.org/Graphics/SVG/1.1/DTD/svg11.dtd"><svg t="1730920813353" class="icon" viewBox="0 0 1024 1024" version="1.1" xmlns="http://www.w3.org/2000/svg" p-id="3706" xmlns:xlink="http://www.w3.org/1999/xlink" width="64" height="64"><path d="M805.2 256.9c-9.6-7.6-35.3-13.6-54.6-18.2l-26.1-3.5v-63l13.4-0.2c12.5 6.3 30.5 16.8 31.5 30.7h50.3c-0.9-27.9-22.1-45.5-41-59.5-12.5-9.3-26.2-14.2-54.1-17.2V91.1h-27.9v33.8c-27.9 2.7-36.9 9.6-49.5 21-16.5 14.8-23.8 33.4-23.8 55.8 0 24.6 7 42.6 23.9 54.1 9.4 6.5 21.5 12.6 49.4 18.3v68.3c-14-2.5-14-1.8-18.9-7.7-4.7-5.7-6-20.4-7.7-20.4h-49.9c0 27.9 7.5 41.3 26.4 56.2 13.6 10.7 22.1 12.6 50 15.4V412h27.9v-25.6c27.9-2.7 51.6-9.8 65.2-21.4 17.7-15.1 32.2-34.1 32.2-57 0-22.3-1.8-39.3-16.7-51.1zM682.9 218c-8.1-4.4-11.2-11.1-11.2-20.1 0-9.7 2.7-17.4 10.9-22.8 4.3-2.9 0.1-4.9 14-6.3v55c-14-2.1-10.7-4-13.7-5.8z m60.6 123.1c-2.3 0.8-19 1.5-19 2V285c27.9 2.4 25.8 5 30.4 7.8 7.3 4.5 10.9 11 10.9 19.2 0 14.1-7.5 23.9-22.3 29.1z m-67.6 168.6h-7.7l-85.7-155.2c-3.7-6.7-13-12.2-20.7-12.2H301.7c-7.7 0-17 5.5-20.7 12.2l-85.7 155.2h-7.7c-15.4 0-35.2 12.6-35.2 27.9v139.5c0 15.3 19.8 27.9 35.2 27.9h20.6v41.9c0 23 26.1 41.9 49.1 41.9h14c23 0 34.6-18.8 34.6-41.9V705h237.2v41.9c0 23 26.1 41.9 49.1 41.9h14c23 0 34.6-18.8 34.6-41.9V705H676c15.3 0 20.6-12.6 20.6-27.9V537.6c0-15.4-5.3-27.9-20.7-27.9zM236.4 621.3c-19.3 0-34.9-15.6-34.9-34.9 0-19.3 15.6-34.9 34.9-34.9s34.9 15.6 34.9 34.9c0 19.3-15.6 34.9-34.9 34.9z m27.9-111.6l56.5-113.1c3.4-6.9 12.5-12.5 20.2-12.5h181.4c7.7 0 16.8 5.6 20.2 12.5l56.5 113.1H264.3z m362.8 111.6c-19.3 0-34.9-15.6-34.9-34.9 0-19.3 15.6-34.9 34.9-34.9 19.3 0 34.9 15.6 34.9 34.9 0 19.3-15.7 34.9-34.9 34.9z" p-id="3707" fill="#0000FF"></path></svg>