<?xml version="1.0" standalone="no"?><!DOCTYPE svg PUBLIC "-//W3C//DTD SVG 1.1//EN" "http://www.w3.org/Graphics/SVG/1.1/DTD/svg11.dtd"><svg t="1728204706083" class="icon" viewBox="0 0 1239 1024" version="1.1" xmlns="http://www.w3.org/2000/svg" p-id="4388" xmlns:xlink="http://www.w3.org/1999/xlink" width="77.4375" height="64"><path d="M272.490967 304.072327A95.081246 95.081246 0 0 1 177.659935 212.243861l-9.820892-10.634087a22.394136 22.394136 0 0 1-5.06683-21.518387 112.596213 112.596213 0 0 1 218.374099 9.195357 22.394136 22.394136 0 0 1-6.255345 20.204765l-7.881735 7.881735a95.018693 95.018693 0 0 1-94.580819 86.699083z m0 0" fill="#7D7D7E" p-id="4389"></path><path d="M1239.004345 428.616249v-55.297251a22.331582 22.331582 0 0 0-33.52865-19.39157l-194.29102 112.220892-12.51069-2.877459A2326.487966 2326.487966 0 0 0 592.07655 5.629811a22.394136 22.394136 0 0 0-32.840562 29.837996l310.64044 437.186072-5.379597 11.697495c-127.796701 11.885156-222.815394 24.083079-304.447648 39.221015l-13.261332-13.198779a22.269029 22.269029 0 0 0-13.011117-11.384728l-145.812096-48.666585-3.565546-1.939157-137.617594-114.160049a22.394136 22.394136 0 0 0-13.761759-5.129383L114.480949 326.341356a22.394136 22.394136 0 0 0-20.767746 14.011973L1.571969 569.424068a22.018815 22.018815 0 0 0-1.62639 9.070251l13.94942 419.608552a22.394136 22.394136 0 0 0 22.331582 21.643494h131.362248a22.394136 22.394136 0 0 0 22.394135-22.394135v-8.194502a22.331582 22.331582 0 0 0-19.641783-22.206476l-42.598901-5.191936-7.944288-10.50898 54.108735-349.173366 2.439585-5.379597 84.259499-100.460843 11.822602-2.564691 82.257789 38.720586a22.018815 22.018815 0 0 0 6.755773 1.939157l76.940745 9.633232 0.437874 7.005986a1180.508735 1180.508735 0 0 0-118.851557 38.095052 22.331582 22.331582 0 0 0-12.948565 12.948565l-56.298106 148.814661-8.257056 6.568112-13.011118 1.81405a22.394136 22.394136 0 0 0-18.766035 25.459255l18.203054 121.166035a22.394136 22.394136 0 0 0 22.143922 18.766036h216.059621l8.632377 4.378741a238.51631 238.51631 0 0 0 357.868295 23.394991 228.257544 228.257544 0 0 0 20.8303-23.707758l8.632376-4.441295h354.115088a22.394136 22.394136 0 0 0 22.331583-22.394136V499.739524a22.331582 22.331582 0 0 0-22.83201-22.269029h-20.892853l-2.439585-8.569823c13.636652-8.131949 25.646915-15.450703 35.217594-21.330727a22.456689 22.456689 0 0 0 10.69664-19.141356zM423.807766 709.668907a637.23201 637.23201 0 0 1-92.766769 9.695785 199.232743 199.232743 0 0 1 41.160171-100.836164l136.554185-26.772877z m322.025168 155.632987a115.098351 115.098351 0 1 1 33.71631-81.319487 114.973244 114.973244 0 0 1-33.71631 81.319487z m0 0" fill="#7D7D7E" p-id="4390"></path></svg>