<?xml version="1.0" standalone="no"?><!DOCTYPE svg PUBLIC "-//W3C//DTD SVG 1.1//EN" "http://www.w3.org/Graphics/SVG/1.1/DTD/svg11.dtd"><svg t="1728204466762" class="icon" viewBox="0 0 1024 1024" version="1.1" xmlns="http://www.w3.org/2000/svg" p-id="1686" xmlns:xlink="http://www.w3.org/1999/xlink" width="64" height="64"><path d="M853.211429 200.557714a23.460571 23.460571 0 0 1 24.082285 1.078857l64.128 42.038858 3.309715 2.340571a60.050286 60.050286 0 0 1 23.899428 48.036571v115.456l-0.128 4.059429a66.285714 66.285714 0 0 1-41.435428 57.636571l-43.008 17.426286-0.621715 259.913143-0.146285 4.443429a73.984 73.984 0 0 1-24.155429 50.285714 74.057143 74.057143 0 0 1-57.051429 18.669714c-37.101714-3.712-66.194286-37.284571-66.194285-76.397714V489.563429l-43.666286-18.358858-3.730286-1.645714a66.267429 66.267429 0 0 1-37.851428-60.050286V294.034286l0.146285-4.041143a60.086857 60.086857 0 0 1 27.062858-46.317714l64.182857-42.093715 2.486857-1.426285a23.497143 23.497143 0 0 1 33.938286 21.083428v96.402286l0.182857 3.309714a31.085714 31.085714 0 0 0 34.304 27.721143c15.670857-1.572571 27.885714-16.530286 27.885714-34.011429V221.257143l0.182857-2.852572c0.914286-7.533714 5.412571-14.189714 12.178286-17.846857z m-257.28 86.820572l1.005714 1.078857-1.188572 46.372571H393.417143l-4.717714 0.091429-5.668572 0.310857a134.4 134.4 0 0 0-91.611428 46.445714l-3.748572 4.589715-6.637714 8.630857-3.017143 4.022857-5.284571 7.350857-1.572572 2.285714-2.834286 4.242286-6.564571 10.422857-5.650286 8.411429a291.986286 291.986286 0 0 1-24.32 30.610285l-6.509714 6.857143-47.323429 46.884572-3.126857 3.236571-3.547428 4.022857a102.784 102.784 0 0 0-23.771429 68.242286l0.256 5.339429 1.718857 20.662857 1.828572 18.541714 0.548571 4.608 1.042286 8.704 1.645714 11.885714 2.413714 14.390857 0.877715 4.662858 3.017143 14.902857 1.737142 7.972571 3.894858 16.877714 2.194285 8.96 3.766857 14.939429 0.749715 2.413714c3.145143 8.411429 10.733714 14.281143 19.565714 15.286857l2.669714 0.146286h128.896v-1.792l0.054857-0.292571 0.054858-13.970286 0.091428-2.56 0.347429-3.108571a36.681143 36.681143 0 0 1 33.060571-30.829715l3.163429-0.128H654.08l3.693714 0.182857 3.565715 0.548572c5.906286 1.188571 11.410286 3.84 16.073142 7.68l2.669715 2.450286 1.938285 2.541714v23.021714l0.128 5.924572 0.493715 6.582857c1.499429 15.140571 5.723429 29.860571 12.452571 43.483428l3.035429 5.76-0.658286 1.92-4.169143 0.018286-3.401143-0.109714a50.102857 50.102857 0 0 1-45.750857-40.539429l-0.512-3.382857-0.310857-3.382857v-5.284572h-2.102857l-266.569143-0.292571h-2.742857l-0.091429 5.851429-0.310857 3.364571a50.066286 50.066286 0 0 1-46.409143 43.684571l-3.273143 0.091429h-126.409142l-3.364572-0.073143-4.004571-0.310857a71.168 71.168 0 0 1-60.379429-49.097143l-1.115428-3.876571-2.432-9.508572-4.425143-18.121143-2.011429-8.594285-3.584-16.292572-1.572571-7.68-1.444572-7.369143-1.298285-7.094857-1.170286-6.820571-0.859429-5.394286-0.822857-5.686857-1.609143-12.324571-1.536-13.458286-1.426285-14.628572-1.883429-22.491428-0.329143-5.961143a150.217143 150.217143 0 0 1 40.246857-107.830857l4.169143-4.297143 8.996572-6.656-57.673143-9.124571-2.523429-0.530286a25.673143 25.673143 0 0 1 7.990857-50.432l2.596572 0.274286 88.905143 14.08 1.865142 0.530285 2.450286-0.676571 4.205714-4.717714 5.211429-6.272c3.419429-4.260571 6.747429-8.722286 9.984-13.348572l4.809143-7.094857 6.656-10.550857 2.450286-3.730286c2.56-3.858286 5.504-8.045714 8.813714-12.544l3.437714-4.608 7.643429-9.947428 3.894857-4.790858 4.205714-4.827428a181.851429 181.851429 0 0 1 128.512-59.830857l6.418286-0.109715H595.931429z m289.078857-29.769143l-1.572572 0.859428v56.210286l-0.109714 4.022857c-1.92 37.357714-30.299429 68.772571-66.139429 72.356572a74.093714 74.093714 0 0 1-57.014857-18.651429 73.929143 73.929143 0 0 1-24.301714-54.747428v-59.190858l-34.633143 20.845715-1.792 1.316571a17.572571 17.572571 0 0 0-6.198857 13.421714v115.456l0.146286 2.633143c0.950857 8.722286 6.564571 16.219429 14.848 19.565715l56.941714 23.094857 2.322286 1.097143c6.710857 3.730286 10.971429 10.825143 10.971428 18.651428v270.994286l0.109715 3.053714c1.334857 16.146286 13.019429 29.476571 27.776 30.957714a31.085714 31.085714 0 0 0 24.192-7.881142 30.902857 30.902857 0 0 0 10.276571-23.131429V474.550857l0.164571-2.578286c0.914286-7.625143 5.906286-14.226286 13.129143-17.170285l56.923429-23.094857 2.395428-1.115429c7.734857-4.150857 12.580571-12.16 12.580572-21.083429V294.034286l-0.128-2.212572a17.609143 17.609143 0 0 0-7.826286-12.544L885.028571 257.609143zM225.883429 544.932571l2.614857 0.274286 149.924571 23.753143 2.523429 0.530286a25.673143 25.673143 0 0 1-7.990857 50.432l-2.614858-0.274286-149.942857-23.753143-2.505143-0.530286a25.673143 25.673143 0 0 1 7.990858-50.432z m454.912 15.908572l1.188571 1.005714-0.859429 50.907429-43.410285 6.912-2.56 0.256a25.673143 25.673143 0 0 1-10.294857-49.700572l2.505142-0.786285 2.523429-0.512 50.907429-8.082286z" p-id="1687" fill="#03481E"></path></svg>