<?xml version="1.0" standalone="no"?><!DOCTYPE svg PUBLIC "-//W3C//DTD SVG 1.1//EN" "http://www.w3.org/Graphics/SVG/1.1/DTD/svg11.dtd"><svg t="1730746481589" class="icon" viewBox="0 0 1181 1024" version="1.1" xmlns="http://www.w3.org/2000/svg" p-id="1699" xmlns:xlink="http://www.w3.org/1999/xlink" width="73.8125" height="64"><path d="M1134.592 610.304c0-4.096 0-6.144-2.048-8.192 0-2.048-2.048-6.144-4.096-10.24-14.336-36.864-45.056-114.688-102.4-114.688h-192.512c-73.728 0-133.12 69.632-176.128 129.024h-22.528C563.2 606.208 481.28 663.552 481.28 737.28v43.008c0 12.288 10.24 24.576 24.576 24.576h65.536c10.24 38.912 45.056 65.536 86.016 65.536s73.728-26.624 86.016-65.536h176.128c10.24 38.912 45.056 65.536 86.016 65.536s73.728-26.624 86.016-65.536h22.528c36.864 0 67.584-30.72 67.584-67.584v-65.536c-4.096-26.624-20.48-51.2-47.104-61.44z m-131.072 129.024c22.528 0 40.96 18.432 40.96 40.96s-18.432 40.96-40.96 40.96-40.96-18.432-40.96-40.96 18.432-40.96 40.96-40.96z m-305.152 40.96c0 22.528-18.432 40.96-40.96 40.96s-40.96-18.432-40.96-40.96 18.432-40.96 40.96-40.96 40.96 18.432 40.96 40.96zM567.296 350.208c0-16.384-14.336-30.72-30.72-30.72h-327.68c-16.384 0-30.72 14.336-30.72 30.72s14.336 30.72 30.72 30.72h327.68c18.432 0 30.72-14.336 30.72-30.72zM518.144 542.72c0-16.384-14.336-30.72-30.72-30.72H208.896c-16.384 0-30.72 14.336-30.72 30.72S192.512 573.44 208.896 573.44h278.528c16.384 0 30.72-14.336 30.72-30.72zM208.896 716.8c-16.384 0-30.72 14.336-30.72 30.72S192.512 778.24 208.896 778.24h192.512c16.384 0 30.72-14.336 30.72-30.72S419.84 716.8 403.456 716.8H208.896z" fill="#ffffff" p-id="1700"></path><path d="M759.808 942.08H151.552c-49.152 0-90.112-40.96-90.112-90.112V243.712c0-49.152 40.96-90.112 90.112-90.112h608.256c49.152 0 90.112 40.96 90.112 90.112v141.312c0 16.384 14.336 30.72 30.72 30.72s30.72-14.336 30.72-30.72v-141.312c0-83.968-67.584-151.552-151.552-151.552H151.552c-83.968 0-151.552 67.584-151.552 151.552v608.256c0 83.968 67.584 151.552 151.552 151.552h608.256c16.384 0 30.72-14.336 30.72-30.72s-14.336-30.72-30.72-30.72z" fill="#ffffff" p-id="1701"></path></svg>