<?xml version="1.0" standalone="no"?><!DOCTYPE svg PUBLIC "-//W3C//DTD SVG 1.1//EN" "http://www.w3.org/Graphics/SVG/1.1/DTD/svg11.dtd"><svg t="1728151979176" class="icon" viewBox="0 0 1024 1024" version="1.1" xmlns="http://www.w3.org/2000/svg" p-id="4126" xmlns:xlink="http://www.w3.org/1999/xlink" width="64" height="64"><path d="M306.379411 415.921781l-69.704548 69.706595 224.074382 224.081545 497.956146-497.961262-69.706595-69.705572L460.749244 567.785537 306.379411 415.921781 306.379411 415.921781zM859.115184 859.095229 161.97658 859.095229 161.97658 161.955602l497.960239 0L659.936819 62.365396 161.97658 62.365396c-54.775534 0-99.590206 44.814672-99.590206 99.590206l0 697.139627c0 54.781674 44.814672 99.590206 99.590206 99.590206l697.138604 0c54.781674 0 99.590206-44.808532 99.590206-99.590206L958.70539 460.728266l-99.590206 0L859.115184 859.095229 859.115184 859.095229zM859.115184 859.095229" fill="#BCEC03" p-id="4127"></path></svg>