<?xml version="1.0" standalone="no"?><!DOCTYPE svg PUBLIC "-//W3C//DTD SVG 1.1//EN" "http://www.w3.org/Graphics/SVG/1.1/DTD/svg11.dtd"><svg t="1734515261871" class="icon" viewBox="0 0 1024 1024" version="1.1" xmlns="http://www.w3.org/2000/svg" p-id="44616" xmlns:xlink="http://www.w3.org/1999/xlink" width="64" height="64"><path d="M955.904 224.256c-3.072-30.72-26.112-56.32-56.32-62.464-61.44-9.728-122.368-23.552-182.272-41.984-58.368-24.064-113.152-55.808-162.816-95.232-26.112-18.944-60.928-18.944-87.04 0-47.104 43.52-102.912 75.776-163.84 94.72-56.32 23.552-116.224 38.4-177.152 44.032a66.56 66.56 0 0 0-55.808 62.464s-2.048 157.184-2.048 295.424c0 250.368 295.424 493.056 443.392 493.056 147.968 0 398.336-171.008 438.272-488.96 10.24-187.904 3.072-300.032 3.072-300.032l2.56-1.024z m-161.28 193.536l-308.736 291.328c-13.824 13.312-35.328 15.36-51.2 5.12l-8.192-6.656L256 529.92c-15.872-17.408-14.848-44.032 2.56-59.904s44.032-14.848 59.904 2.56L458.752 619.52 737.28 356.352c17.408-15.872 44.032-14.848 59.904 2.56 15.872 17.408 14.848 44.032-2.56 59.904v-1.024z" fill="#238657" p-id="44617"></path></svg>