<?xml version="1.0" standalone="no"?>
<!DOCTYPE svg PUBLIC "-//W3C//DTD SVG 20010904//EN"
 "http://www.w3.org/TR/2001/REC-SVG-20010904/DTD/svg10.dtd">
<svg version="1.0" xmlns="http://www.w3.org/2000/svg"
 width="200.000000pt" height="229.000000pt" viewBox="0 0 200.000000 229.000000"
 preserveAspectRatio="xMidYMid meet">

<g transform="translate(0.000000,229.000000) scale(0.100000,-0.100000)"
fill="#000000" stroke="none">
<path d="M690 2149 c-248 -26 -448 -92 -514 -170 l-26 -31 0 -219 c0 -227 4
-255 44 -288 14 -12 13 -17 -14 -48 l-30 -34 0 -220 c0 -230 6 -264 47 -287
15 -9 13 -14 -15 -46 l-32 -37 0 -222 c0 -264 0 -263 110 -321 256 -134 939
-162 1330 -54 102 28 194 73 225 109 l25 31 0 233 0 233 -28 30 -28 30 28 31
28 31 0 234 0 234 -28 30 -28 30 28 31 28 31 0 231 c0 212 -2 233 -19 258 -54
75 -272 144 -540 171 -121 12 -469 11 -591 -1z m661 -43 c212 -29 376 -82 434
-140 l25 -25 0 -217 0 -217 -40 -37 c-38 -35 -51 -60 -31 -60 5 0 23 -14 40
-31 l31 -31 0 -215 0 -216 -40 -37 c-38 -35 -51 -60 -31 -60 5 0 23 -13 40
-29 l31 -29 0 -214 c0 -240 0 -240 -73 -282 -283 -164 -1151 -169 -1462 -8
-88 45 -85 34 -85 287 l0 223 42 37 c42 35 42 37 23 51 -70 51 -65 31 -65 278
l0 224 43 37 42 36 -25 17 c-62 43 -60 32 -60 275 0 248 -4 233 73 281 68 42
246 88 412 105 55 6 116 13 135 15 71 9 438 -4 541 -18z"/>
<path d="M676 2075 c-223 -27 -429 -97 -442 -150 -8 -33 7 -50 75 -84 144 -72
364 -105 691 -105 257 0 374 12 542 55 127 32 228 86 228 120 0 40 -124 101
-271 134 -194 44 -589 58 -823 30z"/>
<path d="M257 1370 c-75 -60 21 -125 258 -175 379 -81 952 -48 1178 67 41 20
77 52 77 68 0 13 -52 60 -67 60 -6 0 -59 -16 -116 -35 -171 -57 -272 -69 -587
-70 -309 0 -425 13 -579 66 -123 43 -132 44 -164 19z"/>
<path d="M267 792 c-35 -22 -45 -57 -23 -81 42 -46 209 -99 405 -128 177 -26
552 -23 729 5 167 27 315 75 361 118 40 36 38 54 -10 83 -32 19 -32 19 -83 -1
-193 -79 -532 -114 -856 -89 -203 16 -348 47 -480 104 -8 4 -28 -1 -43 -11z"/>
</g>
</svg>
