<?xml version="1.0" standalone="no"?><!DOCTYPE svg PUBLIC "-//W3C//DTD SVG 1.1//EN" "http://www.w3.org/Graphics/SVG/1.1/DTD/svg11.dtd"><svg t="1723050411735" class="icon" viewBox="0 0 1024 1024" version="1.1" xmlns="http://www.w3.org/2000/svg" p-id="18979" xmlns:xlink="http://www.w3.org/1999/xlink" width="64" height="64"><path d="M512 31.999999c-52.799998 0-95.999997 43.199999-95.999997 95.999997 0 27.615999 11.968 52.383998 30.719999 69.951998C265.984008 229.023993 128.000012 386.399988 128.000012 575.999982c0 211.903993 172.127995 383.999988 383.999988 383.999988s383.999988-172.095995 383.999988-383.999988c0-136.223996-71.359998-255.679992-178.495994-323.87199l16.383999-28.383999 13.792 8 15.999999-27.679999-13.791999-8-27.776-16-13.791999-7.999999-16 27.679999 13.792 8-16.224 28.191999a380.991988 380.991988 0 0 0-112.639996-38.015999C596.031997 180.383994 607.999997 155.615995 607.999997 127.999996c0-52.799998-43.199999-95.999997-95.999997-95.999997z m0 31.999999c35.519999 0 63.999998 28.479999 63.999998 63.999998 0 29.951999-20.351999 54.655998-47.999998 61.759998V159.999995h15.999999V127.999996h-63.999998v31.999999h15.999999v29.759999A63.551998 63.551998 0 0 1 448.000002 127.999996c0-35.519999 28.479999-63.999998 63.999998-63.999998z m0 159.999995c60.543998 0 117.439996 15.264 167.199995 42.111999l2.784 1.6A351.647989 351.647989 0 0 1 863.999989 575.999982c0 194.591994-157.407995 351.999989-351.999989 351.999989S160.000011 770.591976 160.000011 575.999982C160.000011 381.439988 317.408006 223.999993 512 223.999993z m0 31.999999C335.456006 255.999992 192.00001 399.455988 192.00001 575.999982s143.455996 319.99999 319.99999 319.99999 319.99999-143.455996 319.99999-319.99999S688.543994 255.999992 512 255.999992z m0 31.999999c159.231995 0 287.999991 128.767996 287.999991 287.999991s-128.767996 287.999991-287.999991 287.999991-287.999991-128.767996-287.999991-287.999991 128.767996-287.999991 287.999991-287.999991z m0 31.999999a16 16 0 1 0 0 31.999999 16 16 0 0 0 0-31.999999z m-120.383996 32.191999l0 0z m239.647992 0a16 16 0 1 0 8.736 2.112 15.808 15.808 0 0 0-8.736-2.112zM496 383.999988v146.943995c-18.527999 6.656-31.999999 24.351999-31.999999 45.055999 0 26.335999 21.663999 47.999999 47.999999 47.999999s47.999999-21.663999 47.999999-47.999999c0-20.703999-13.472-38.399999-31.999999-45.055999V383.999988z m-192.639993 55.999998a16 16 0 1 0 8.735999 2.112 15.808 15.808 0 0 0-8.735999-2.112z m416.063987 0l0 0zM272.000007 559.999983a16 16 0 1 0 0 31.999999 16 16 0 0 0 0-31.999999z m239.999993 0c9.024 0 16 6.976 16 15.999999 0 9.024-6.976 16-16 16a15.776 15.776 0 0 1-15.999999-16c0-9.024 6.976-16 15.999999-15.999999z m239.999993 0a16 16 0 1 0 0 31.999999 16 16 0 0 0 0-31.999999zM303.744007 679.999979l0 0z m415.327987 0a16 16 0 1 0 8.799999 2.112 16 16 0 0 0-8.799999-2.112z m-327.80799 87.871997a16 16 0 1 0 8.735999 2.112 15.808 15.808 0 0 0-8.735999-2.08z m240.351992 0l0 0zM512 799.999975a16 16 0 1 0 0 31.999999 16 16 0 0 0 0-31.999999z" p-id="18980" fill="#2c2c2c"></path></svg>