<?xml version="1.0" standalone="no"?><!DOCTYPE svg PUBLIC "-//W3C//DTD SVG 1.1//EN" "http://www.w3.org/Graphics/SVG/1.1/DTD/svg11.dtd"><svg t="1723050225251" class="icon" viewBox="0 0 1024 1024" version="1.1" xmlns="http://www.w3.org/2000/svg" p-id="14179" xmlns:xlink="http://www.w3.org/1999/xlink" width="64" height="64"><path d="M869.3 413.9c-26.1-35.8-50.6-86.4-99.1-92.6-44.5-5.7-111.1 2.2-158.2 2.6-0.3-48.7 8.8-105.5-33.4-117-15.4-4.2-38.5-1.3-59.2-1.3H98.7c-3 8.2-0.4 21.9-1.3 32.2h423.3c18.8 0 47.7-2.1 54 5.1 7 7.9 3.9 38.8 3.9 55.3v405.1H411.3c-10.7-59.1-72.6-100.2-135.1-75.9-31.1 12.1-53.1 38.5-61.8 75.9-25.7-6.9-63 11-79.8-3.9-11.6-10.3-5.1-56.1-5.1-78.4v-82.3c-8.2-3-21.9-0.4-32.2-1.3 9.8 70.3-26 177 33.4 196.7 20.5 6.8 53.1 0.2 82.3 2.6 11.9 63.8 89 106.1 151.8 68.1 21.6-13.1 39.8-36.6 46.3-68.1h252.2c6.5 29.1 22.9 54.7 45 68.1 61 37.2 142.1-0.8 151.8-68.1 42.5 3 63.1-15.8 68.2-50.1V525.8c-2.9-45.8-33.9-77.4-59-111.9zM317.4 786.8c-31.2 1.9-57.4-17-66.9-41.1-18.4-46.4 15.4-87 55.3-91.3 90.9-9.8 97.1 127.2 11.6 132.4z m411.7-432c56.7-10.1 79.3 30.3 101.6 60.4 25.9 34.8 51.9 60.5 61.8 105.4h-79.8c-22.8 0-60.2 6.8-75.9-2.6-16.2-9.7-9-54.4-9-75.9v-83.6c-0.1-1.7-0.2-3.5 1.3-3.7z m30.9 432c-29.4-0.6-51.9-19.9-60.5-41.1-18.4-45.9 14.7-86.9 55.3-91.3 32.1-3.5 59.2 14.4 69.5 39.9 17.5 43.6-16 93.5-64.3 92.5z m100.3-83.6c-9.9-88.1-142.3-112.9-186.5-30.9-4.7 8.7-6.9 19.5-10.3 30.9H612v-297c0-24.2-4.6-46.8 14.2-51.4 24.1-5.9 44.2 4.4 69.5 0 4.5 51.3-6.1 112 0 155.6 9.8 70 124.9 35.5 199.4 43.7v73.3c-0.1 39.1 10.5 85.7-34.8 75.8z m-464.4-432H97.4v33.4h298.5v-33.4z m-298.5 99h248.3V338h-247c-3 8.2-0.4 21.9-1.3 32.2z m0 66.9h198.1v-32.2H98.7c-3 8.2-0.4 21.9-1.3 32.2z m148 33.4H98.7c-3 8.6-0.4 22.7-1.3 33.4h149.2c-0.7-10.8 1.6-24.7-1.2-33.4z" fill="#2c2c2c" p-id="14180"></path></svg>