<?xml version="1.0" standalone="no"?><!DOCTYPE svg PUBLIC "-//W3C//DTD SVG 1.1//EN" "http://www.w3.org/Graphics/SVG/1.1/DTD/svg11.dtd"><svg t="1728998663178" class="icon" viewBox="0 0 1024 1024" version="1.1" xmlns="http://www.w3.org/2000/svg" p-id="7153" xmlns:xlink="http://www.w3.org/1999/xlink" width="64" height="64"><path d="M834.56 768v-512a102.4 102.4 0 0 0-102.4-102.4h-512a102.4 102.4 0 0 0-102.4 102.4v512a102.4 102.4 0 0 0 102.4 102.4h512a102.4 102.4 0 0 0 102.4-102.4zM266.24 281.6h205.57824a30.72 30.72 0 1 1 0 61.44H266.24a30.72 30.72 0 1 1 0-61.44z m0 133.12h204.8a30.72 30.72 0 1 1 0 61.44h-204.8a30.72 30.72 0 1 1 0-61.44z m419.84 327.68H266.24a30.72 30.72 0 1 1 0-61.44H686.08a30.72 30.72 0 1 1 0 61.44z m0-133.12H266.24a30.72 30.72 0 1 1 0-61.44H686.08a30.72 30.72 0 1 1 0 61.44z m220.16-282.33728v452.87424A90.58304 90.58304 0 0 1 815.65696 870.4h-51.05664a102.4 102.4 0 0 0 102.4-102.4v-512c0-1.3312-0.34816-2.58048-0.4096-3.91168a90.4192 90.4192 0 0 1 39.64928 74.8544z" p-id="7154" fill="#D70C0C"></path></svg>