<?xml version="1.0" standalone="no"?><!DOCTYPE svg PUBLIC "-//W3C//DTD SVG 1.1//EN" "http://www.w3.org/Graphics/SVG/1.1/DTD/svg11.dtd"><svg t="1729004478757" class="icon" viewBox="0 0 1088 1024" version="1.1" xmlns="http://www.w3.org/2000/svg" p-id="1665" xmlns:xlink="http://www.w3.org/1999/xlink" width="68" height="64"><path d="M48.384 896H624c26.464 0 48-21.536 48-48v-608c0-0.736-0.32-1.376-0.416-2.08a13.632 13.632 0 0 0-0.416-1.984 15.616 15.616 0 0 0-3.904-7.264L443.296 4.704a16.224 16.224 0 0 0-9.248-4.32C433.376 0.32 432.736 0 432 0H48.192C21.632 0 0 21.536 0 48v800c0 26.464 21.696 48 48.384 48zM448 54.624L617.376 224H464a16 16 0 0 1-16-16V54.624zM32 48c0-8.832 7.264-16 16.192-16H416v176c0 26.464 21.536 48 48 48H640v592a16 16 0 0 1-16 16H48.384A16.192 16.192 0 0 1 32 848v-800z" fill="#D70C0C" p-id="1666"></path><path d="M144 384h384a16 16 0 0 0 0-32h-384a16 16 0 0 0 0 32zM144 512h384a16 16 0 0 0 0-32h-384a16 16 0 0 0 0 32zM144 256h160a16 16 0 0 0 0-32h-160a16 16 0 0 0 0 32zM144 640h384a16 16 0 0 0 0-32h-384a16 16 0 0 0 0 32zM144 768h384a16 16 0 0 0 0-32h-384a16 16 0 0 0 0 32z" fill="#D70C0C" p-id="1667"></path><path d="M688 160H832v176c0 26.464 21.536 48 48 48H1056v592a16 16 0 0 1-16 16H464.384a16.192 16.192 0 0 1-16.384-16v-32a16 16 0 0 0-32 0v32c0 26.464 21.696 48 48.384 48H1040c26.464 0 48-21.536 48-48v-608c0-0.736-0.32-1.376-0.416-2.08a13.632 13.632 0 0 0-0.416-1.984 15.616 15.616 0 0 0-3.904-7.264l-223.968-223.968a15.712 15.712 0 0 0-9.248-4.288C849.376 128.32 848.736 128 848 128h-160a16 16 0 0 0 0 32z m192 192a16 16 0 0 1-16-16V182.624L1033.376 352H880z" fill="#D70C0C" p-id="1668"></path><path d="M752 512h192a16 16 0 0 0 0-32h-192a16 16 0 0 0 0 32zM752 640h192a16 16 0 0 0 0-32h-192a16 16 0 0 0 0 32zM752 768h192a16 16 0 0 0 0-32h-192a16 16 0 0 0 0 32zM752 896h192a16 16 0 0 0 0-32h-192a16 16 0 0 0 0 32z" fill="#D70C0C" p-id="1669"></path></svg>