<?xml version="1.0" standalone="no"?>
<!DOCTYPE svg PUBLIC "-//W3C//DTD SVG 20010904//EN"
 "http://www.w3.org/TR/2001/REC-SVG-20010904/DTD/svg10.dtd">
<svg version="1.0" xmlns="http://www.w3.org/2000/svg"
 width="512.000000pt" height="512.000000pt" viewBox="0 0 512.000000 512.000000"
 preserveAspectRatio="xMidYMid meet">

<g transform="translate(0.000000,512.000000) scale(0.100000,-0.100000)"
fill="#000000" stroke="none">
<path d="M786 4949 c-62 -15 -153 -68 -197 -116 -22 -24 -55 -74 -72 -111
l-32 -67 0 -176 0 -175 37 -76 c45 -91 103 -147 196 -191 61 -29 76 -32 162
-32 86 0 101 3 162 32 93 44 151 100 195 191 36 72 37 79 41 203 l4 129 135 0
c129 0 135 1 158 25 16 15 25 36 25 55 0 19 -9 40 -25 55 -23 24 -28 25 -177
25 l-153 0 -14 33 c-21 46 -118 139 -173 165 -87 40 -184 52 -272 31z m165
-160 c21 -7 53 -25 71 -40 l33 -28 -175 0 -175 0 33 28 c56 48 136 63 213 40z
m169 -325 c0 -128 -13 -168 -75 -229 -51 -52 -102 -75 -165 -75 -63 0 -114 23
-165 75 -62 61 -75 101 -75 229 l0 96 240 0 240 0 0 -96z"/>
<path d="M3986 4950 c-63 -16 -153 -70 -197 -117 -22 -24 -55 -74 -72 -111
l-32 -67 0 -176 0 -175 37 -76 c45 -91 103 -147 196 -191 61 -29 76 -32 162
-32 86 0 101 3 162 32 92 43 151 101 195 189 31 65 36 85 41 169 l5 95 52 -6
c141 -17 265 94 265 236 0 133 -110 240 -244 240 -51 0 -132 -37 -170 -78
l-29 -31 -31 24 c-63 48 -143 77 -224 81 -42 2 -94 -1 -116 -6z m168 -162 c55
-16 138 -99 154 -154 7 -23 12 -92 12 -154 0 -62 -5 -131 -12 -154 -16 -55
-99 -138 -154 -154 -94 -28 -169 -8 -239 63 -64 63 -75 100 -75 245 0 145 11
182 75 245 70 71 145 90 239 63z m461 -13 c16 -15 25 -36 25 -55 0 -19 -9 -40
-25 -55 -15 -16 -36 -25 -55 -25 -19 0 -40 9 -55 25 -16 15 -25 36 -25 55 0
19 9 40 25 55 15 16 36 25 55 25 19 0 40 -9 55 -25z"/>
<path d="M2050 4231 c-168 -49 -331 -96 -362 -105 -38 -11 -62 -24 -70 -39
-10 -17 -14 -148 -18 -550 l-5 -527 -76 127 -76 128 -6 105 c-8 164 -59 283
-167 389 -221 218 -558 214 -780 -9 -133 -133 -170 -241 -170 -503 0 -154 1
-158 25 -182 15 -16 36 -25 55 -25 19 0 40 9 55 25 24 24 25 28 25 183 0 131
4 171 20 224 36 116 109 201 220 256 49 24 66 27 160 27 93 0 112 -3 160 -26
l55 -26 -66 5 c-184 13 -334 -115 -346 -295 -3 -43 1 -85 10 -114 8 -25 87
-171 177 -325 89 -153 174 -299 187 -324 44 -77 94 -132 160 -173 l63 -39 0
-117 c0 -176 -27 -259 -120 -366 l-40 -46 0 -760 c0 -805 0 -805 -45 -823 -9
-3 -100 -6 -201 -6 -183 0 -185 0 -209 25 l-25 24 0 770 0 769 -46 54 c-109
126 -114 153 -114 591 l0 358 -25 24 c-15 16 -36 25 -55 25 -19 0 -40 -9 -55
-25 l-25 -24 0 -364 c0 -330 2 -371 20 -441 22 -87 57 -157 107 -215 l33 -39
0 -742 c0 -554 3 -753 12 -784 16 -55 99 -138 154 -154 65 -19 418 -16 477 4
57 19 128 93 145 152 9 29 12 238 12 784 0 685 1 747 17 759 32 27 93 133 114
198 13 40 24 109 28 173 l6 106 185 -104 c242 -136 307 -149 434 -90 172 79
239 311 134 458 -14 20 -16 28 -6 28 7 0 97 -19 201 -42 l187 -42 68 18 c37
10 74 21 83 23 15 4 14 -2 -3 -54 -66 -194 68 -399 275 -420 80 -8 141 15 337
126 l175 99 6 -106 c4 -64 15 -133 28 -173 21 -65 82 -171 114 -198 16 -12 17
-74 17 -759 0 -555 3 -755 12 -786 16 -55 99 -138 154 -154 65 -19 418 -16
477 4 57 19 128 93 145 152 9 29 12 237 12 782 l0 742 33 39 c50 58 85 128
107 215 19 73 20 112 20 688 0 490 -3 624 -15 678 -43 206 -211 378 -420 433
-241 62 -514 -68 -624 -298 -44 -91 -61 -167 -61 -270 0 -67 -2 -71 -71 -190
-39 -67 -75 -126 -80 -132 -5 -5 -9 99 -9 263 l0 273 -25 24 c-15 16 -36 25
-55 25 -19 0 -40 -9 -55 -25 l-25 -24 0 -320 0 -319 -32 -11 c-101 -32 -496
-151 -501 -151 -4 0 -7 232 -7 515 l0 514 68 20 c162 48 457 131 464 131 5 0
8 -45 8 -100 0 -94 2 -103 25 -125 15 -16 36 -25 55 -25 19 0 40 9 55 25 25
24 25 27 25 193 0 147 -2 173 -17 191 -15 18 -96 39 -478 126 -253 58 -471
105 -485 104 -14 0 -162 -40 -330 -88z m613 -133 c153 -34 274 -65 270 -69 -5
-3 -85 -29 -180 -56 l-171 -50 -276 61 c-152 33 -276 64 -276 67 0 4 319 103
350 108 3 1 130 -27 283 -61z m-515 -244 l352 -78 0 -519 c0 -489 -1 -518 -17
-513 -10 3 -157 37 -328 76 -170 39 -329 76 -352 82 l-43 10 0 515 c0 485 1
514 18 509 9 -2 176 -40 370 -82z m2095 -129 c111 -55 181 -136 217 -253 19
-61 20 -95 20 -671 0 -641 -1 -656 -48 -746 -11 -22 -41 -64 -66 -93 l-46 -54
0 -769 0 -770 -25 -24 c-24 -25 -26 -25 -215 -25 -189 0 -191 0 -215 25 l-25
24 0 770 0 769 -46 54 c-90 104 -114 179 -114 355 l0 122 45 26 c24 15 58 42
74 60 37 42 199 288 211 321 18 47 -20 103 -70 104 -42 0 -63 -23 -154 -169
-47 -77 -98 -148 -114 -159 -85 -59 -597 -335 -630 -339 -48 -6 -119 30 -149
76 -30 44 -30 110 -2 161 17 30 49 54 153 116 166 99 426 262 447 281 10 8 86
134 170 281 84 147 169 284 189 304 84 85 229 45 260 -73 15 -54 4 -88 -69
-215 -70 -122 -77 -160 -35 -193 61 -48 97 -22 186 131 82 140 92 171 86 262
-8 117 -71 212 -178 267 -37 19 -61 24 -132 24 -81 0 -85 1 -60 14 58 31 108
41 192 38 69 -3 96 -9 143 -32z m-3173 -197 c43 -22 53 -37 212 -313 93 -159
178 -298 190 -309 13 -10 142 -89 288 -176 146 -87 275 -169 287 -182 46 -49
55 -115 23 -178 -30 -58 -74 -85 -140 -85 -53 0 -68 8 -358 170 l-304 170
-197 330 c-109 182 -205 344 -214 362 -32 62 -18 141 35 190 50 47 111 54 178
21z"/>
</g>
</svg>
