<?xml version="1.0" standalone="no"?><!DOCTYPE svg PUBLIC "-//W3C//DTD SVG 1.1//EN" "http://www.w3.org/Graphics/SVG/1.1/DTD/svg11.dtd"><svg t="1729602197583" class="icon" viewBox="0 0 1024 1024" version="1.1" xmlns="http://www.w3.org/2000/svg" p-id="6006" xmlns:xlink="http://www.w3.org/1999/xlink" width="64" height="64"><path d="M128 490.666667h58.660571V512h104.448c4.973714 0 9.874286 1.145905 14.311619 3.388952l121.246477 60.611048h149.333333a85.333333 85.333333 0 0 1 85.065143 78.531048l170.544762-72.484572a74.410667 74.410667 0 0 1 63.536762 134.460953l-401.408 209.432381a64.853333 64.853333 0 0 1-50.517334 4.022857L213.333333 853.333333H186.660571v42.666667H128V490.666667z m58.660571 306.127238h42.666667v0.024381l232.448 77.482666a6.168381 6.168381 0 0 0 4.827429-0.390095l401.408-209.432381a15.750095 15.750095 0 0 0-13.433905-28.452571l-260.291048 110.640762H384v-58.660572h192a26.672762 26.672762 0 1 0 0-53.345524h-163.181714l-128-64H186.660571v226.133334z" p-id="6007"></path><path d="M725.406476 563.44381a249.539048 249.539048 0 0 0 47.932953-147.43162c0-138.459429-112.225524-250.684952-250.684953-250.684952-138.435048 0-250.63619 112.225524-250.63619 250.684952 0 12.678095 0.926476 25.136762 2.755047 37.302858H215.527619a312.490667 312.490667 0 0 1-2.218667-37.302858c0-170.861714 138.48381-309.345524 309.345524-309.345523 170.837333 0 309.321143 138.48381 309.321143 309.345523 0 39.058286-7.241143 76.434286-20.48 110.860191l-2.852571 1.170286-83.260953 35.401143z" p-id="6008"></path><path d="M473.478095 358.814476a59.977143 59.977143 0 0 1-16.286476-41.984c0-7.606857 1.26781-14.823619 3.900952-21.650286v-0.097523c2.633143-6.656 6.339048-12.678095 11.166477-18.115048l0.073142-0.073143c4.85181-5.36381 10.776381-9.99619 17.578667-13.848381l0.097524-0.048762c5.046857-2.80381 10.264381-4.949333 15.457524-6.656V224.01219h45.299809v31.792762c7.801905 1.999238 15.847619 5.12 23.161905 10.630096 7.460571 5.680762 14.238476 13.677714 20.406857 23.527619l6.826667 10.898285-42.154667 22.625524-5.997714-9.289143c-7.314286-11.288381-15.652571-15.750095-25.209905-15.750095-7.070476 0-12.312381 2.023619-16.310857 5.461333m-37.985524 54.905905c6.972952 7.94819 20.089905 15.579429 37.059048 23.137524h0.024381l3.169524 1.389714c13.165714 5.802667 24.81981 10.922667 33.767619 19.017143 4.096 3.900952 6.460952 9.240381 6.460952 16.822857 0 8.484571-2.852571 14.921143-8.289524 19.968-5.632 5.193143-12.678095 7.92381-21.699047 7.92381-9.679238 0-16.432762-2.511238-21.406477-6.826667-4.315429-4.217905-8.777143-11.751619-12.8-23.722667l-3.388952-9.99619-47.104 9.435429 3.31581 12.385523c4.949333 18.480762 12.458667 33.450667 23.235047 43.812572 9.99619 9.606095 23.478857 15.920762 39.619048 19.504762v32.280381h45.299809v-34.011429a78.60419 78.60419 0 0 0 35.84-24.795428 72.533333 72.533333 0 0 0 16.700953-47.104c0-18.16381-6.241524-33.889524-18.748953-46.884572-4.632381-4.998095-11.166476-9.825524-19.065904-14.506667a272.335238 272.335238 0 0 0-26.648381-13.482666l-8.582096-3.803429c-11.117714-5.095619-17.310476-8.97219-20.065523-11.654095a14.628571 14.628571 0 0 1-4.58362-11.166476c0-5.095619 1.828571-9.118476 5.87581-12.629334" p-id="6009"></path></svg>