<?xml version="1.0" standalone="no"?><!DOCTYPE svg PUBLIC "-//W3C//DTD SVG 1.1//EN" "http://www.w3.org/Graphics/SVG/1.1/DTD/svg11.dtd"><svg t="1721722025809" class="icon" viewBox="0 0 1024 1024" version="1.1" xmlns="http://www.w3.org/2000/svg" p-id="3992" xmlns:xlink="http://www.w3.org/1999/xlink" width="64" height="64"><path d="M438.999255 1007.563452l-139.247142-52.046618c-46.057651-17.216438-91.968154-34.403447-137.731507-51.502166-25.103627-9.388109-34.77132-41.540176-21.439617-71.779305 51.649315-117.174785 104.961415-238.101872 159.980443-362.943122 56.858391-129.020284 115.585576-262.234315 176.358132-400.171831 16.333544-37.066845 53.120806-59.816087 81.623576-50.22197 3.796445 1.280197 7.622321 2.560393 11.462911 3.855305-0.088289 0.176579-0.147149 0.382588-0.235439 0.544452C557.10108 51.521384 564.311383 80.377312 585.795144 87.646475c34.874324 11.801354 69.998801 23.690996 105.093848 35.565924 35.183337 11.904358 70.469678 23.897005 105.917884 35.933797 21.822204 7.416312 50.957715-9.432254 64.789725-37.655441 0.044145-0.088289 0.147149-0.279583 0.250153-0.544451 3.884735 1.309627 7.798899 2.619253 11.727779 3.943594 29.164941 9.829556 37.86145 48.456181 19.408959 85.390592-68.762749 137.599073-135.171114 270.415802-199.401672 398.891634-62.170472 124.355659-122.398577 244.826583-180.640169 361.339198-15.097492 30.180269-48.294317 46.660963-73.942396 37.066844zM576.2746 8.730441c-6.400984-2.148376-12.757822-4.282037-19.114661-6.430413-30.018405-10.07971-68.542026 13.94973-85.65546 52.929512-62.199902 141.601527-122.354432 278.45014-180.419445 410.589983C234.903528 593.662615 180.502526 717.606256 127.837882 837.444439c-13.89087 31.607615-3.78173 65.201742 22.543234 75.060729 47.8823 17.922754 96.000038 35.933797 144.22078 54.0037 48.353177 18.114048 97.000651 36.331099 145.78056 54.592296 26.913561 10.07971 61.832029-7.048439 77.621122-38.538335 59.771943-119.190727 121.589257-242.575203 185.437228-369.917988 65.996347-131.639537 134.464798-268.046702 205.243489-409.192067 19.511964-38.906208 10.300433-79.578204-20.468432-89.937497-6.489273-2.177806-13.022691-4.385042-19.511963-6.562847-49.177211-16.524838-98.236703-32.990816-147.016612-49.38322-48.60333-16.333544-97.133085-32.637658-145.383258-48.853484z" p-id="3993" fill="#6b7280"></path><path d="M788.684248 418.967267L643.624719 198.69986c-10.491727-15.936242-13.419993-33.461693-10.91846-44.556731 2.383815-10.535872 9.137956-18.202337 19.747402-20.836305 2.854691-0.706315 5.694668-1.368486 8.505215-2.118947 0.088289 0.206009 0.161864 0.353158 0.206009 0.412018 1.280197 2.015942 2.707542 3.958309 4.237892 5.841817-4.120173 3.590437-6.857146 8.887802-8.107912 15.303501-2.030657 10.418152 0.735745 27.03128 8.814228 41.834473l122.56044 224.402296z" p-id="3994" fill="#6b7280"></path><path d="M766.391168 147.78629c1.61864 31.210313 3.737586 26.310249 6.518703 71.926454 3.384428 55.416331 6.93072 103.122052 12.743107 177.697188l-114.629107-202.859675c-10.197429-13.434708-10.844885-31.401606-8.814228-41.834474 1.927653-9.903131 7.386882-17.098719 15.965672-19.570823 2.31024-0.662171 4.605765-1.294912 6.87186-1.986512 0.073575 0.191294 0.132434 0.323728 0.161864 0.382587 4.958923 9.005522 12.404665 16.730847 20.468432 21.822204 8.328636 5.253221 17.084004 7.592891 23.955865 5.532804 6.20969-1.868793 12.36052-3.78173 18.496635-5.621094 6.106685-1.824648 12.198656-3.634581 18.246482-5.503374z" p-id="3995" fill="#6b7280"></path><path d="M105.05921 180.232654c137.687362-56.093216 171.767082-44.306578 319.136851-15.200496l-6.20969 26.25139L602.422986 146.388374 450.447451 42.08913c-5.061927 17.03986-6.739426 22.660953-11.801354 39.686098C287.597601 46.694895 282.359095 43.972638 131.3106 57.274912L105.05921 180.232654z" p-id="3996" fill="#6b7280"></path></svg>