<?xml version="1.0" standalone="no"?><!DOCTYPE svg PUBLIC "-//W3C//DTD SVG 1.1//EN" "http://www.w3.org/Graphics/SVG/1.1/DTD/svg11.dtd"><svg t="1728998130568" class="icon" viewBox="0 0 1280 1024" version="1.1" xmlns="http://www.w3.org/2000/svg" p-id="5168" xmlns:xlink="http://www.w3.org/1999/xlink" width="80" height="64"><path d="M1092.5 705.5H615.5V206c0-9-13.499999999999998-18-26.999999999999996-18H381.49999999999994c-58.50000000000001 0-63 0-99 103.5l-63 180H156.49999999999994C102.5 471.5 62 512 62 566v225c0 9 4.5 9 4.5 9h157.5c-4.5 9-4.5 18-4.5 26.999999999999996 0 67.5 53.99999999999999 121.50000000000003 117.00000000000001 121.50000000000003 67.5 0 117.00000000000001-53.99999999999999 117.00000000000001-121.50000000000003 0-9 0-18-4.5-26.999999999999996h373.5c-4.5 9-4.5 18-4.5 26.999999999999996 0 67.5 53.99999999999999 121.50000000000003 117.00000000000001 121.50000000000003 67.5 0 117.00000000000001-53.99999999999999 117.00000000000001-121.50000000000003 0-9 0-18-4.5-26.999999999999996h36c4.5 0 9-4.5 9-9v-72c9-13.499999999999998 4.5-13.499999999999998 0-13.499999999999998z m-540-306.00000000000006c0 22.5-26.999999999999996 40.49999999999999-49.5 40.49999999999999H354.5c-36 0-53.99999999999999-18-40.49999999999999-53.99999999999999l45-121.50000000000003c4.5-13.499999999999998 18-26.999999999999996 45-26.999999999999996h117.00000000000001c31.5 0 36 26.999999999999996 36 40.49999999999999v121.50000000000003z" fill="#D70C0C" p-id="5169"></path><path d="M1178 282.5c0-121.50000000000003-99-220.5-225-220.5-121.50000000000003 0-225 99-225 220.5s130.5 247.5 225 360c103.5-117.00000000000001 225-234.00000000000003 225-360z m-247.5 103.5c-9 9-22.5 4.5-31.5-4.5l-67.5-67.5c-9-9-9-26.999999999999996 0-36 9-9 26.999999999999996-9 36 0L917 327.5l139.5-135c9-9 26.999999999999996-9 36 0 9 9 9 26.999999999999996 0 36L935 377c0 4.5-4.5 4.5-4.5 9z" fill="#D70C0C" p-id="5170"></path></svg>