<?xml version="1.0" standalone="no"?><!DOCTYPE svg PUBLIC "-//W3C//DTD SVG 1.1//EN" "http://www.w3.org/Graphics/SVG/1.1/DTD/svg11.dtd"><svg t="1764630468662" class="icon" viewBox="0 0 1170 1024" version="1.1" xmlns="http://www.w3.org/2000/svg" p-id="15158" xmlns:xlink="http://www.w3.org/1999/xlink" width="228.515625" height="200"><path d="M250.91901 767.804952v170.861715h835.925333V341.333333h-83.577905V256h113.615238c8.679619 0 15.457524 0.487619 20.236191 1.316571a45.543619 45.543619 0 0 1 12.385523 3.998477c6.972952 4.486095 12.190476 9.752381 15.701334 16.042666 1.755429 3.510857 3.023238 7.753143 3.900952 12.678096 0.877714 4.87619 1.316571 11.702857 1.316572 20.626285V969.386667c0 8.874667-0.438857 15.750095-1.316572 20.675047a47.88419 47.88419 0 0 1-3.900952 12.678096 45.397333 45.397333 0 0 1-15.701334 15.993904 45.543619 45.543619 0 0 1-12.385523 3.998476 117.662476 117.662476 0 0 1-20.236191 1.316572H220.881676c-8.728381 0-15.457524-0.487619-20.23619-1.316572a45.543619 45.543619 0 0 1-12.434286-3.998476 45.446095 45.446095 0 0 1-15.652571-15.993904 47.88419 47.88419 0 0 1-3.900953-12.678096 125.123048 125.123048 0 0 1-1.316571-20.675047v-201.532953h83.577905zM919.639771 85.333333H83.714438V682.666667h835.925333V85.333333z m83.577905-30.671238V713.386667c0 8.874667-0.438857 15.750095-1.267809 20.675047a47.88419 47.88419 0 0 1-3.900953 12.678096 45.397333 45.397333 0 0 1-15.701333 15.993904 45.543619 45.543619 0 0 1-12.434286 3.998476 117.662476 117.662476 0 0 1-20.23619 1.316572H53.677105c-8.679619 0-15.457524-0.487619-20.236191-1.316572a45.543619 45.543619 0 0 1-12.385524-3.998476 45.446095 45.446095 0 0 1-15.701333-16.042666 47.88419 47.88419 0 0 1-3.900952-12.678096A125.123048 125.123048 0 0 1 0.136533 713.386667V54.613333C0.136533 45.83619 0.57539 38.912 1.453105 33.987048a47.88419 47.88419 0 0 1 3.900952-12.678096A45.397333 45.397333 0 0 1 21.104152 5.36381 45.543619 45.543619 0 0 1 33.440914 1.316571C38.219581 0.487619 44.997486 0 53.677105 0h896c8.728381 0 15.457524 0.487619 20.23619 1.316571a45.543619 45.543619 0 0 1 12.434286 3.998477c6.095238 4.486095 11.312762 9.752381 15.652571 16.042666 1.755429 3.510857 3.072 7.753143 3.900953 12.678096 0.877714 4.87619 1.316571 11.702857 1.316571 20.626285zM501.701486 597.333333c-59.245714-1.755429-108.397714-22.674286-147.602286-62.659047-39.204571-39.984762-59.63581-90.209524-61.391238-150.674286 1.755429-60.464762 22.186667-110.689524 61.391238-150.674286 39.15581-39.984762 88.356571-60.903619 147.602286-62.659047 59.196952 1.755429 108.397714 22.674286 147.602285 62.659047 39.15581 39.984762 59.63581 90.209524 61.342477 150.674286-1.706667 60.464762-22.186667 110.689524-61.342477 150.674286-39.204571 39.984762-88.405333 60.903619-147.602285 62.659047z m0-85.333333c35.693714-0.877714 65.29219-13.312 88.795428-37.351619 23.503238-23.990857 35.254857-54.223238 35.254857-90.648381 0-36.425143-11.702857-66.657524-35.254857-90.697143-23.503238-23.990857-53.150476-35.986286-88.795428-35.986286-35.693714 0-65.340952 11.995429-88.844191 36.035048-23.503238 23.990857-35.254857 54.223238-35.254857 90.648381 0 36.425143 11.751619 66.657524 35.254857 90.697143 23.503238 23.990857 53.150476 36.425143 88.844191 37.302857z" fill="#ffffff" p-id="15159"></path></svg>