<?xml version="1.0" standalone="no"?><!DOCTYPE svg PUBLIC "-//W3C//DTD SVG 1.1//EN" "http://www.w3.org/Graphics/SVG/1.1/DTD/svg11.dtd"><svg t="1764629570906" class="icon" viewBox="0 0 1024 1024" version="1.1" xmlns="http://www.w3.org/2000/svg" p-id="10774" xmlns:xlink="http://www.w3.org/1999/xlink" width="200" height="200"><path d="M512 972.8c-253.952 0-460.8-206.848-460.8-460.8s206.848-460.8 460.8-460.8 460.8 206.848 460.8 460.8-206.848 460.8-460.8 460.8z m0-837.632c-207.872 0-376.832 168.96-376.832 376.832s168.96 376.832 376.832 376.832 376.832-168.96 376.832-376.832-168.96-376.832-376.832-376.832z" p-id="10775" fill="#03481E"></path><path d="M679.424 637.44c-6.144 0-12.8-1.536-18.944-4.608l-167.424-83.968c-14.336-7.168-23.04-21.504-23.04-37.376v-250.88c0-23.04 18.944-41.984 41.984-41.984s41.984 18.944 41.984 41.984v225.28l144.384 72.192c20.48 10.24 29.184 35.328 18.944 56.32-7.68 14.848-22.528 23.04-37.888 23.04z" p-id="10776" fill="#03481E"></path></svg>