<?xml version="1.0" standalone="no"?><!DOCTYPE svg PUBLIC "-//W3C//DTD SVG 1.1//EN" "http://www.w3.org/Graphics/SVG/1.1/DTD/svg11.dtd"><svg t="1764629938881" class="icon" viewBox="0 0 1024 1024" version="1.1" xmlns="http://www.w3.org/2000/svg" p-id="11948" xmlns:xlink="http://www.w3.org/1999/xlink" width="200" height="200"><path d="M799.60064 592.464896c-37.167104-40.674304-80.518144-72.640512-128.84992-95.010816a386.16576 386.16576 0 0 0-26.729472-11.172864c65.711104-43.139072 109.198336-117.470208 109.198336-201.780224 0-133.008384-108.210176-241.21856-241.217536-241.21856S270.782464 151.492608 270.782464 284.500992c0 84.72576 43.915264 159.38048 110.17216 202.421248-56.344576 21.039104-92.901376 48.534528-97.683456 52.236288-110.58688 82.280448-176.605184 218.258432-176.605184 363.815936 0 17.487872 14.17728 31.664128 31.665152 31.664128h747.339776c17.487872 0 31.664128-14.176256 31.664128-31.664128 0-117.149696-41.812992-227.424256-117.7344-310.509568zM512 866.327552l-75.227136-102.921216 63.480832-212.153344-13.063168-7.144448 9.974784-18.860032c4.909056 0.299008 9.852928 0.468992 14.835712 0.468992s9.925632-0.169984 14.834688-0.468992l9.974784 18.860032-13.065216 7.144448 63.480832 212.153344L512 866.327552z" fill="#ffffff" p-id="11949"></path></svg>