<?xml version="1.0" standalone="no"?><!DOCTYPE svg PUBLIC "-//W3C//DTD SVG 1.1//EN" "http://www.w3.org/Graphics/SVG/1.1/DTD/svg11.dtd"><svg t="1764630391724" class="icon" viewBox="0 0 1280 1024" version="1.1" xmlns="http://www.w3.org/2000/svg" p-id="14075" xmlns:xlink="http://www.w3.org/1999/xlink" width="250" height="200"><path d="M483.699575 512.00045H92.439919A28.479975 28.479975 0 0 1 63.999944 483.560475v-110.219903A85.439925 85.439925 0 0 1 149.339869 288.000647h533.319531c0.579999 0 1.059999 0.32 1.619999 0.32 1.299999 0 2.539998-0.32 3.859996-0.32h116.279898a150.379868 150.379868 0 0 0-61.619946-51.119955l-31.759972-137.659879A127.419888 127.419888 0 0 0 586.319485 0.0009H240.139789a127.399888 127.399888 0 0 0-124.71989 99.219913l-32.559972 141.099876C33.99997 264.880667 0 314.980623 0 373.340572v110.219903a92.279919 92.279919 0 0 0 63.999944 87.499923V640.000337a31.999972 31.999972 0 0 0 31.999972 31.999972h31.999972a31.999972 31.999972 0 0 0 31.999971-31.999972v-63.999943h287.299748c8.619992-8.579992 17.139985-17.299985 27.279976-24.419979zM177.779844 113.6208A63.999944 63.999944 0 0 1 240.139789 64.000844h346.179696a63.999944 63.999944 0 0 1 62.359945 49.619956L674.139407 224.000703H152.299866zM127.999888 392.000555a39.999965 39.999965 0 1 0 39.999964-39.999964 39.999965 39.999965 0 0 0-39.999964 39.999964z m487.999571 311.999726a39.999965 39.999965 0 1 0 39.999964 39.999965 39.999965 39.999965 0 0 0-39.999964-39.999965z m495.999564 0a39.999965 39.999965 0 1 0 39.999965 39.999965 39.999965 39.999965 0 0 0-39.999965-39.999965z m78.79993-115.119899l-31.759972-137.659879A127.419888 127.419888 0 0 0 1034.319091 352.000591H688.139395a127.399888 127.399888 0 0 0-124.71989 99.219912l-32.559972 141.099876C481.999576 616.880358 447.999606 666.980314 447.999606 725.340262v110.219904a92.279919 92.279919 0 0 0 63.999944 87.499923V992.000028a31.999972 31.999972 0 0 0 31.999972 31.999972h31.999972a31.999972 31.999972 0 0 0 31.999972-31.999972v-63.999944h511.99955v63.999944a31.999972 31.999972 0 0 0 31.999972 31.999972h31.999971a31.999972 31.999972 0 0 0 31.999972-31.999972v-68.939939a92.279919 92.279919 0 0 0 63.999944-87.499923v-110.219904a149.399869 149.399869 0 0 0-89.199922-136.45988z m-565.019503-123.259891A63.999944 63.999944 0 0 1 688.139395 416.000534h346.179696a63.999944 63.999944 0 0 1 62.359945 49.619957L1122.139014 576.000394H600.299472zM1215.998931 835.560166A28.479975 28.479975 0 0 1 1187.558956 864.000141H540.439525A28.479975 28.479975 0 0 1 511.99955 835.560166v-110.219904A85.439925 85.439925 0 0 1 597.339475 640.000337h533.319531A85.439925 85.439925 0 0 1 1215.998931 725.340262z" p-id="14076" fill="#03481E"></path></svg>