<?xml version="1.0" standalone="no"?><!DOCTYPE svg PUBLIC "-//W3C//DTD SVG 1.1//EN" "http://www.w3.org/Graphics/SVG/1.1/DTD/svg11.dtd"><svg t="1721721905879" class="icon" viewBox="0 0 1024 1024" version="1.1" xmlns="http://www.w3.org/2000/svg" p-id="1874" xmlns:xlink="http://www.w3.org/1999/xlink" width="64" height="64"><path d="M644.949333 896H379.392c-29.824 0-53.632-8.533333-71.466667-25.6-17.834667-17.066667-26.752-39.936-26.752-68.650667V222.293333c0-28.501333 8.917333-51.328 26.752-68.522666C325.76 136.576 349.568 128 379.392 128h265.557333c29.568 0 53.333333 8.576 71.125334 25.770667 17.834667 17.194667 26.752 40.021333 26.752 68.522666V801.706667c0 28.714667-8.917333 51.626667-26.752 68.693333-17.834667 17.066667-41.557333 25.557333-71.125334 25.557333zM349.354667 334.677333c7.637333 7.253333 18.218667 10.88 31.744 10.88h74.282666c13.610667 0 24.192-3.626667 31.829334-10.88 7.68-7.253333 11.52-17.28 11.52-30.122666V225.408c0-12.8-3.84-22.826667-11.52-30.08-7.637333-7.253333-18.218667-10.88-31.829334-10.88h-74.24c-13.568 0-24.149333 3.626667-31.786666 10.88-7.637333 7.253333-11.434667 17.28-11.434667 30.08v79.146667c0 12.8 3.84 22.869333 11.434667 30.122666z" p-id="1875" fill="#6b7280"></path></svg>