<?xml version="1.0" standalone="no"?><!DOCTYPE svg PUBLIC "-//W3C//DTD SVG 1.1//EN" "http://www.w3.org/Graphics/SVG/1.1/DTD/svg11.dtd"><svg t="1730747805714" class="icon" viewBox="0 0 1024 1024" version="1.1" xmlns="http://www.w3.org/2000/svg" p-id="1529" xmlns:xlink="http://www.w3.org/1999/xlink" width="64" height="64"><path d="M104.45 449l105.29-179.9-61.53 105.11a32 32 0 0 0 27.62 48.16h-21.17a32 32 0 0 0-24.53 52.55l52.58 62.79 0.51 0.6L439 828.82a32 32 0 0 0 54-32.44l-3.75-9.94a32 32 0 0 0 20.14 7.14 32 32 0 0 0 20.26-7.25L524.88 799a32 32 0 0 0 54.23 32.09l251.62-292.53 9-9.56-328.52 382z m792.45 13.54a32 32 0 0 0-30.95-40.14h-31.46a32 32 0 0 0 27.68-48.06l44.78 76.51zM655.57 450.3a32 32 0 0 0-31.74-27.92h-42.22A32 32 0 0 0 613 396.81l4.17 8.15a32 32 0 0 0 28.48 17.41h2.07a32 32 0 0 0 30-20.83l2.76-7.4a32 32 0 0 0 31.78 28.23h-24a32 32 0 0 0-30 20.77z m-295.84-7.21a32 32 0 0 0-29.94-20.71h-24.14a32 32 0 0 0 31.77-28.17l2.39 6.37a32 32 0 0 0 28.13 20.71q0.92 0.05 1.84 0.05a32 32 0 0 0 28.48-17.41l3.64-7.11a32 32 0 0 0 31.35 25.56h-39.09a32 32 0 0 0-31.73 27.87z m427.73-196.42A32 32 0 0 0 759.94 231q-1.36 0-2.74 0.12a32 32 0 0 0-23.36 13.35 32 32 0 0 0-32-31.46H571.16a32 32 0 0 0-31.35 25.56l-3.91-7.63a32 32 0 0 0-57 0l-3.9 7.62A32 32 0 0 0 443.69 213h-128a32 32 0 0 0-31.86 29 32 32 0 0 0-26.32-18.39q-1.36-0.12-2.71-0.11a32 32 0 0 0-27.58 15.78L242.56 213h525.19z" p-id="1530" fill="#03481E"></path><path d="M507.67 853.53a63.72 63.72 0 0 0 5.88 5.64l-2.63 3.06-5.68-6.46q1.25-1.09 2.43-2.24M786.1 181H224.21l-160 273.38h2.35l444.93 505.35L946.1 454.38 786.1 181zM645.61 390.38L571.16 245h130.69l-54.17 145.38z m-275.83-1L315.65 245h128l-73.87 144.34z m63.47 1l74.18-144.85 74.18 144.85z m-257.42 0l79-134.9 50.87 134.9z m536.37 0L759.93 263l74.56 127.39zM554.85 810.27l133.37-355.9h177.73l-59 62.78-252.1 293.12z m-45.49-48.69l-115.2-307.2h229.67l-114.47 307.2zM463 807.67L207.24 517.16l-52.58-62.78h175.13L463 807.67z" p-id="1531" fill="#03481E"></path></svg>