<?xml version="1.0" standalone="no"?><!DOCTYPE svg PUBLIC "-//W3C//DTD SVG 1.1//EN" "http://www.w3.org/Graphics/SVG/1.1/DTD/svg11.dtd"><svg t="1764626673106" class="icon" viewBox="0 0 1024 1024" version="1.1" xmlns="http://www.w3.org/2000/svg" p-id="5592" xmlns:xlink="http://www.w3.org/1999/xlink" width="200" height="200"><path d="M758.27 114c89.268 0 161.608 76.108 161.608 170.06v507.916c0 93.916-72.34 170.024-161.608 170.024h-482.78c-89.27 0-161.612-76.108-161.612-170.024V284.06C113.88 190.108 186.22 114 275.488 114h482.78z m-49.62 458H407.118c-32.614 0-59.956 18.332-63.47 49.156l-12.114 96.942h-22.844c-1.45 0.026-22.69 0.74-22.69 21.66 0 21.164 21.744 21.646 22.732 21.656h22.8v64.9c0 21.362 23.354 43.686 45.5 43.686 22.29 0 45.46-22.544 45.46-43.686v-12.566h273.018v12.936C693.606 847.676 718.898 870 741.006 870c22.328 0 45.498-22.544 45.498-43.686v-64.9h32.76c0.988-0.01 22.732-0.492 22.732-21.658 0-20.92-21.24-21.632-22.69-21.656h-32.802l-14.532-98.128c-4.1-30.306-31.26-47.972-63.322-47.972z m20.656 148c12.55 0 22.694 9.748 22.694 21 0 11.576-9.626 21-22.694 21h-44.574C672.18 762 662 752.288 662 741c0-11.576 9.626-21 22.732-21h44.574z m-294.01 0c12.52 0 22.704 9.748 22.704 21-0.038 11.576-9.666 21-22.74 21h-44.556c-12.556 0-22.704-9.712-22.704-21 0-11.576 9.592-21 22.704-21h44.592z m285.542-110L730 684H388l11.066-74H720.84zM335.886 213h-124.7V598h77.708v-145.228h50.668c35.176 0 62.04-1.84 80.594-5.516 13.65-2.976 27.082-9.06 40.296-18.252 13.214-9.192 24.108-21.84 32.684-37.948 8.576-16.108 12.864-35.98 12.864-59.614 0-30.64-7.44-55.632-22.314-74.98-14.876-19.344-33.34-31.906-55.392-37.684-14.352-3.852-45.154-5.778-92.408-5.778z m-10.328 63.8c27.874 0 46.428 0.88 55.66 2.644 12.544 2.292 22.91 8.02 31.096 17.188 8.188 9.166 12.282 20.8 12.282 34.904 0 11.458-2.918 21.506-8.754 30.144-5.836 8.638-13.892 14.984-24.17 19.04-10.116 3.988-30.018 6.016-59.704 6.08h-43.778v-110h37.368z" fill="#ffffff" p-id="5593"></path></svg>