<?xml version="1.0" standalone="no"?><!DOCTYPE svg PUBLIC "-//W3C//DTD SVG 1.1//EN" "http://www.w3.org/Graphics/SVG/1.1/DTD/svg11.dtd"><svg t="1729018568232" class="icon" viewBox="0 0 1024 1024" version="1.1" xmlns="http://www.w3.org/2000/svg" p-id="3554" xmlns:xlink="http://www.w3.org/1999/xlink" width="64" height="64"><path d="M610.304 20.48H163.84C98.304 20.48 49.152 73.728 49.152 135.168v753.664c0 65.536 53.248 114.688 114.688 114.688h446.464c65.536 0 114.688-53.248 114.688-114.688v-86.016h-81.92v4.096c0 20.48-16.384 32.768-32.768 32.768H163.84c-20.48 0-32.768-16.384-32.768-32.768V155.648c-4.096-16.384 12.288-32.768 32.768-32.768h446.464c20.48 0 32.768 16.384 32.768 32.768v16.384h81.92v-36.864c0-61.44-53.248-114.688-114.688-114.688z" p-id="3555" fill="#D70C0C"></path><path d="M327.68 311.296v229.376h647.168V311.296c0-32.768-24.576-57.344-57.344-57.344h-532.48c-32.768 0-57.344 24.576-57.344 57.344z m81.92 49.152c0-12.288 12.288-24.576 24.576-24.576h86.016c12.288 0 24.576 12.288 24.576 24.576v81.92c0 12.288-12.288 24.576-24.576 24.576h-86.016c-12.288 0-24.576-12.288-24.576-24.576v-81.92zM978.944 663.552v-45.056H327.68v45.056c0 28.672 24.576 57.344 57.344 57.344h536.576c28.672 0 57.344-24.576 57.344-57.344z" p-id="3556" fill="#D70C0C"></path></svg>