<?xml version="1.0" standalone="no"?><!DOCTYPE svg PUBLIC "-//W3C//DTD SVG 1.1//EN" "http://www.w3.org/Graphics/SVG/1.1/DTD/svg11.dtd"><svg t="1723230558487" class="icon" viewBox="0 0 1024 1024" version="1.1" xmlns="http://www.w3.org/2000/svg" p-id="10904" xmlns:xlink="http://www.w3.org/1999/xlink" width="64" height="64"><path d="M432 544c-70.56 0-128-50.24-128-112s57.44-112 128-112 128 50.24 128 112-57.44 112-128 112z m0-192c-52.96 0-96 35.84-96 80s43.04 80 96 80 96-35.84 96-80-43.04-80-96-80zM736 848H528a48 48 0 0 1-48-48v-32a112 112 0 0 1 10.88-48A341.76 341.76 0 0 0 528 572.32v-24.64a85.28 85.28 0 0 1 26.56-61.76A76.8 76.8 0 0 1 611.84 464 80 80 0 0 1 656 480V288a16 16 0 0 1 9.92-14.72 16 16 0 0 1 17.44 3.36L784 376.48a112 112 0 0 1 32 80V768a80 80 0 0 1-80 80z m-128-352a44.96 44.96 0 0 0-32 13.12 53.6 53.6 0 0 0-16 38.56v24.64a372.48 372.48 0 0 1-40.32 161.28A80 80 0 0 0 512 768v32a16 16 0 0 0 16 16h208a48 48 0 0 0 48-48V455.84A79.04 79.04 0 0 0 760.48 400L688 326.56V544a16 16 0 0 1-32 0 48 48 0 0 0-45.76-48z" p-id="10905" fill="#ffffff"></path><path d="M528 848H256a80 80 0 0 1-80-80V96a73.12 73.12 0 0 1 3.04-21.44A80 80 0 0 1 256 16h352a80 80 0 0 1 80 80v448a16 16 0 0 1-32 0 48 48 0 0 0-48-48 16 16 0 0 1-16-16V174.4A80 80 0 0 1 529.6 112H334.4a80 80 0 0 1-62.4 62.4v515.2a80 80 0 0 1 62.4 62.4H496a16 16 0 0 1 16 16v32a16 16 0 0 0 16 16 16 16 0 0 1 0 32zM256 48a48 48 0 0 0-46.08 35.2A44.32 44.32 0 0 0 208 96v672a48 48 0 0 0 48 48h226.72a48 48 0 0 1-2.72-16v-16H320a16 16 0 0 1-16-16 48 48 0 0 0-48-48 16 16 0 0 1-16-16V160a16 16 0 0 1 16-16 48 48 0 0 0 48-48 16 16 0 0 1 16-16h224a16 16 0 0 1 16 16 48 48 0 0 0 48 48 16 16 0 0 1 16 16v305.6a80 80 0 0 1 32 14.4V96a48 48 0 0 0-48-48z" p-id="10906" fill="#ffffff"></path><path d="M496 784H320a16 16 0 0 1-16-16 48 48 0 0 0-48-48 16 16 0 0 1-16-16V160a16 16 0 0 1 16-16 48 48 0 0 0 48-48 16 16 0 0 1 16-16h224a16 16 0 0 1 16 16 48 48 0 0 0 48 48 16 16 0 0 1 16 16v320a16 16 0 0 1-16 16 48 48 0 0 0-48 48v28.32a376.16 376.16 0 0 1-40.16 161.28A77.44 77.44 0 0 0 512 768a16 16 0 0 1-16 16z m-161.6-32h146.72a113.28 113.28 0 0 1 9.76-32A342.72 342.72 0 0 0 528 572.32V544a80 80 0 0 1 64-78.4V174.4A80 80 0 0 1 529.6 112H334.4a80 80 0 0 1-62.4 62.4v515.2a80 80 0 0 1 62.4 62.4zM793.6 1008H486.4a51.68 51.68 0 0 1-54.4-48v-96a51.68 51.68 0 0 1 54.4-48h307.2a51.68 51.68 0 0 1 54.4 48v96a51.68 51.68 0 0 1-54.4 48zM486.4 848c-12 0-22.4 7.52-22.4 16v96c0 8.48 10.4 16 22.4 16h307.2c12 0 22.4-7.52 22.4-16v-96c0-8.48-10.4-16-22.4-16zM672 720a16 16 0 0 1-16-16V544a16 16 0 0 1 32 0v160a16 16 0 0 1-16 16z" p-id="10907" fill="#ffffff"></path></svg>