<?xml version="1.0" standalone="no"?><!DOCTYPE svg PUBLIC "-//W3C//DTD SVG 1.1//EN" "http://www.w3.org/Graphics/SVG/1.1/DTD/svg11.dtd"><svg t="1730746274707" class="icon" viewBox="0 0 1157 1024" version="1.1" xmlns="http://www.w3.org/2000/svg" p-id="1492" xmlns:xlink="http://www.w3.org/1999/xlink" width="72.3125" height="64"><path d="M712.347826 0a155.826087 155.826087 0 0 0-155.826087 155.826087 155.826087 155.826087 0 0 0 155.826087 155.826087 155.826087 155.826087 0 0 0 155.826087-155.826087 155.826087 155.826087 0 0 0-155.826087-155.826087z m96.990609 101.353739l-112.684522 134.299826a19.144348 19.144348 0 0 1-15.62713 6.633739 19.144348 19.144348 0 0 1-15.627131-6.633739l-50.042435-59.703652a19.500522 19.500522 0 0 1 29.851826-25.043478l35.84 42.740869 98.459827-117.337043a19.478261 19.478261 0 0 1 29.829565 25.043478zM1069.32313 610.370783C1053.161739 489.115826 986.112 400.695652 903.479652 400.695652h-382.21913c-82.67687 0-149.682087 88.420174-165.888 209.608348C297.22713 640.356174 267.130435 701.751652 267.130435 772.786087c0 52.758261 16.695652 100.129391 48.973913 133.342609V1024h150.194087v-69.008696h492.098782V1024h150.171826v-117.826783C1140.891826 872.937739 1157.565217 825.58887 1157.565217 772.808348c-0.022261-71.034435-30.118957-132.429913-88.242087-162.437565z m-548.062608-164.708174h382.196869c53.203478 0 99.728696 62.998261 117.136696 148.368695a219.648 219.648 0 0 0-25.533217-2.782608l0.066782-0.578783a91.714783 91.714783 0 0 0-91.714782-91.558956 91.781565 91.781565 0 0 0-91.759305 91.558956h-369.530435c-13.490087 0-26.156522 1.246609-38.15513 3.33913 17.519304-85.370435 64.111304-148.346435 117.314783-148.346434z m443.859478 145.007304h-123.302957a61.662609 61.662609 0 0 1 123.302957 0zM420.953043 831.955478a59.236174 59.236174 0 0 1-59.392-59.213913c0-32.723478 26.579478-59.213913 59.392-59.213913a59.302957 59.302957 0 0 1 59.36974 59.213913 59.236174 59.236174 0 0 1-59.36974 59.213913z m463.738435-9.661217H539.981913a15.026087 15.026087 0 0 1-15.026087-14.981565c0-8.236522 6.767304-14.959304 15.026087-14.959305h344.709565a14.981565 14.981565 0 0 1 0 29.963131z m0-51.801044H539.981913a15.048348 15.048348 0 0 1-15.026087-14.981565c0-8.258783 6.767304-14.981565 15.026087-14.981565h344.709565c8.236522 0 15.003826 6.722783 15.003826 14.981565 0 8.236522-6.722783 14.981565-15.003826 14.981565z m118.962087 61.44a59.236174 59.236174 0 0 1-59.369739-59.191652c0-32.723478 26.579478-59.213913 59.369739-59.213913a59.213913 59.213913 0 1 1 0 118.427826z" fill="#ffffff" p-id="1493"></path><path d="M167.602087 289.391304L0 460.221217 166.466783 623.304348l163.951304-12.310261L333.913043 452.563478 167.602087 289.391304z m93.851826 271.070609l-18.788174-18.253913c-10.685217 10.618435-24.84313 18.543304-35.862261 20.546783l-8.125217-16.62887a69.164522 69.164522 0 0 0 33.992348-19.055304c12.8-13.289739 13.846261-29.606957 3.205565-39.936-10.24-9.928348-23.596522-8.815304-42.518261-0.445218-25.889391 11.776-45.81287 15.204174-61.974261-0.534261-15.515826-15.026087-16.562087-37.398261-2.715826-57.344l-18.810435-18.276173 11.174957-11.575653 18.075826 17.563826c11.174957-10.818783 21.548522-15.60487 29.918609-17.92l7.791304 16.584348c-5.988174 1.758609-17.474783 5.431652-29.005913 17.341218-13.935304 14.380522-10.640696 28.137739-3.161044 35.350261 9.638957 9.416348 21.192348 7.212522 43.564522-2.515479 26.401391-11.620174 45.456696-11.887304 62.063305 4.229565 14.647652 14.313739 18.521043 37.932522 3.138782 60.193392l19.366957 18.810435-11.353044 11.865043z" fill="#ffffff" p-id="1494"></path></svg>