<?xml version="1.0" standalone="no"?><!DOCTYPE svg PUBLIC "-//W3C//DTD SVG 1.1//EN" "http://www.w3.org/Graphics/SVG/1.1/DTD/svg11.dtd"><svg t="1710608340324" class="icon" viewBox="0 0 1024 1024" version="1.1" xmlns="http://www.w3.org/2000/svg" p-id="19695" xmlns:xlink="http://www.w3.org/1999/xlink" width="64" height="64"><path d="M202.175 117.8A28.125 28.125 0 0 0 198.0125 118.25H146.375a28.125 28.125 0 1 0 0 56.25H174.5v56.25H90.125a28.125 28.125 0 1 0 0 56.25H118.25v506.25H91.53125a28.125 28.125 0 1 0 0 56.25H877.625a28.125 28.125 0 1 0 0-56.25H849.5V287h28.125a28.125 28.125 0 1 0 0-56.25H737v-28.125a28.125 28.125 0 0 0-28.125-28.125h-56.25a28.125 28.125 0 0 0-28.125 28.125V230.75H343.25V174.5h28.125a28.125 28.125 0 1 0 0-56.25h-51.075a28.125 28.125 0 0 0-5.625-0.45 28.125 28.125 0 0 0-4.1625 0.45H207.8a28.125 28.125 0 0 0-5.625-0.45zM230.75 174.5h56.25v56.25H230.75V174.5zM174.5 287h23.625a28.125 28.125 0 0 0 9.1125 0H310.625a28.125 28.125 0 0 0 9.1125 0H793.25v506.25H174.5V287z m140.625 56.25a28.125 28.125 0 0 0-28.125 28.125 28.125 28.125 0 0 0 28.125 28.125 28.125 28.125 0 0 0 28.125-28.125 28.125 28.125 0 0 0-28.125-28.125z m112.5 0a28.125 28.125 0 0 0-28.125 28.125 28.125 28.125 0 0 0 28.125 28.125 28.125 28.125 0 0 0 28.125-28.125 28.125 28.125 0 0 0-28.125-28.125z m112.5 0a28.125 28.125 0 0 0-28.125 28.125 28.125 28.125 0 0 0 28.125 28.125 28.125 28.125 0 0 0 28.125-28.125 28.125 28.125 0 0 0-28.125-28.125z m112.5 0a28.125 28.125 0 0 0-28.125 28.125 28.125 28.125 0 0 0 28.125 28.125 28.125 28.125 0 0 0 28.125-28.125 28.125 28.125 0 0 0-28.125-28.125z m-393.75 112.5a28.125 28.125 0 0 0-28.125 28.125 28.125 28.125 0 0 0 28.125 28.125 28.125 28.125 0 0 0 28.125-28.125 28.125 28.125 0 0 0-28.125-28.125z m112.5 0a28.125 28.125 0 0 0-28.125 28.125 28.125 28.125 0 0 0 28.125 28.125 28.125 28.125 0 0 0 28.125-28.125 28.125 28.125 0 0 0-28.125-28.125z m112.5 0a28.125 28.125 0 0 0-28.125 28.125 28.125 28.125 0 0 0 28.125 28.125 28.125 28.125 0 0 0 28.125-28.125 28.125 28.125 0 0 0-28.125-28.125z m112.5 0a28.125 28.125 0 0 0-28.125 28.125 28.125 28.125 0 0 0 28.125 28.125 28.125 28.125 0 0 0 28.125-28.125 28.125 28.125 0 0 0-28.125-28.125z m112.5 0a28.125 28.125 0 0 0-28.125 28.125 28.125 28.125 0 0 0 28.125 28.125 28.125 28.125 0 0 0 28.125-28.125 28.125 28.125 0 0 0-28.125-28.125z m-393.75 112.5a28.125 28.125 0 0 0-28.125 28.125 28.125 28.125 0 0 0 28.125 28.125 28.125 28.125 0 0 0 28.125-28.125 28.125 28.125 0 0 0-28.125-28.125z m112.5 0a28.125 28.125 0 0 0-28.125 28.125 28.125 28.125 0 0 0 28.125 28.125 28.125 28.125 0 0 0 28.125-28.125 28.125 28.125 0 0 0-28.125-28.125z m112.5 0a28.125 28.125 0 0 0-28.125 28.125 28.125 28.125 0 0 0 28.125 28.125 28.125 28.125 0 0 0 28.125-28.125 28.125 28.125 0 0 0-28.125-28.125z m112.5 0a28.125 28.125 0 0 0-28.125 28.125 28.125 28.125 0 0 0 28.125 28.125 28.125 28.125 0 0 0 28.125-28.125 28.125 28.125 0 0 0-28.125-28.125z m-393.75 112.5a28.125 28.125 0 0 0-28.125 28.125 28.125 28.125 0 0 0 28.125 28.125 28.125 28.125 0 0 0 28.125-28.125 28.125 28.125 0 0 0-28.125-28.125z m112.5 0a28.125 28.125 0 0 0-28.125 28.125 28.125 28.125 0 0 0 28.125 28.125 28.125 28.125 0 0 0 28.125-28.125 28.125 28.125 0 0 0-28.125-28.125z m112.5 0a28.125 28.125 0 0 0-28.125 28.125 28.125 28.125 0 0 0 28.125 28.125 28.125 28.125 0 0 0 28.125-28.125 28.125 28.125 0 0 0-28.125-28.125z m112.5 0a28.125 28.125 0 0 0-28.125 28.125 28.125 28.125 0 0 0 28.125 28.125 28.125 28.125 0 0 0 28.125-28.125 28.125 28.125 0 0 0-28.125-28.125z m112.5 0a28.125 28.125 0 0 0-28.125 28.125 28.125 28.125 0 0 0 28.125 28.125 28.125 28.125 0 0 0 28.125-28.125 28.125 28.125 0 0 0-28.125-28.125z" fill="#7D7D7E" p-id="19696"></path></svg>