<?xml version="1.0" standalone="no"?>
<!DOCTYPE svg PUBLIC "-//W3C//DTD SVG 20010904//EN"
 "http://www.w3.org/TR/2001/REC-SVG-20010904/DTD/svg10.dtd">
<svg version="1.0" xmlns="http://www.w3.org/2000/svg"
 width="512.000000pt" height="512.000000pt" viewBox="0 0 512.000000 512.000000"
 preserveAspectRatio="xMidYMid meet">

<g transform="translate(0.000000,512.000000) scale(0.100000,-0.100000)"
fill="#000000" stroke="none">
<path d="M2443 4813 c-42 -65 -104 -161 -139 -215 -34 -53 -71 -99 -81 -102
-10 -3 -118 -32 -241 -65 -123 -33 -229 -65 -237 -71 -23 -19 -27 -60 -9 -89
10 -14 82 -106 162 -204 l144 -178 -11 -187 c-16 -273 -15 -325 7 -345 10 -10
31 -17 45 -17 15 0 128 39 252 86 l226 86 222 -86 c123 -47 237 -86 253 -86
69 0 73 26 53 362 l-11 187 152 187 c83 102 156 196 161 208 14 29 -4 73 -33
86 -13 6 -124 37 -248 70 -153 40 -229 65 -238 77 -8 10 -72 107 -143 216
l-128 197 -41 0 -41 0 -76 -117z m227 -249 c58 -91 112 -171 120 -178 8 -7 98
-35 200 -61 102 -26 190 -51 197 -54 8 -4 -33 -63 -117 -166 l-130 -160 0 -80
c1 -44 5 -138 9 -210 5 -71 7 -132 5 -134 -2 -2 -87 28 -189 68 -103 39 -194
71 -203 71 -9 0 -100 -32 -201 -70 -101 -39 -186 -68 -189 -65 -3 2 -1 94 5
202 5 109 8 204 5 210 -2 7 -62 83 -132 170 -71 87 -128 159 -127 160 1 1 90
25 197 53 107 29 202 58 210 66 8 7 62 87 120 178 58 91 107 165 110 165 3 0
52 -74 110 -165z"/>
<path d="M979 4271 c-13 -10 -53 -64 -89 -119 l-64 -101 -125 -33 c-196 -51
-203 -72 -77 -227 l84 -103 -5 -142 c-6 -142 -6 -143 18 -159 34 -25 52 -22
181 28 l117 45 117 -45 c131 -51 155 -54 185 -24 21 21 22 27 15 159 l-7 137
81 99 c92 113 101 134 73 172 -16 22 -44 33 -147 62 l-127 35 -65 100 c-90
139 -114 156 -165 116z m89 -261 c49 -79 53 -82 142 -105 36 -9 71 -18 78 -20
9 -3 -7 -29 -45 -77 l-58 -71 3 -95 c3 -88 2 -94 -15 -87 -10 4 -49 19 -88 33
l-70 25 -82 -31 c-45 -18 -84 -32 -86 -32 -2 0 -2 42 1 93 l4 92 -55 69 c-31
39 -54 73 -52 77 3 4 20 10 39 13 114 22 131 32 182 111 27 41 51 75 54 75 3
0 24 -32 48 -70z"/>
<path d="M4064 4275 c-12 -8 -51 -61 -88 -119 l-66 -104 -83 -22 c-158 -42
-171 -47 -190 -73 -28 -36 -19 -58 73 -171 l81 -99 -7 -137 c-7 -132 -6 -138
15 -159 30 -30 54 -27 186 24 l118 46 115 -46 c122 -48 141 -51 173 -34 32 17
36 46 29 179 l-8 125 84 105 c125 156 118 178 -78 229 l-124 33 -65 100 c-86
135 -117 157 -165 123z m89 -270 c52 -79 50 -78 187 -112 19 -5 34 -13 34 -17
-1 -4 -25 -36 -53 -72 l-51 -63 0 -95 0 -95 -85 31 -85 31 -77 -29 c-43 -16
-81 -30 -85 -32 -4 -2 -8 39 -8 91 l0 95 -55 71 -56 70 58 16 c127 36 122 33
172 111 25 40 48 74 51 74 3 0 27 -34 53 -75z"/>
<path d="M954 3036 c-28 -13 -61 -38 -73 -55 -20 -28 -454 -1245 -487 -1364
-20 -73 -3 -137 50 -191 38 -39 58 -49 251 -115 116 -40 224 -75 241 -78 41
-7 100 12 144 47 l35 27 90 -67 c65 -47 213 -193 526 -516 240 -247 454 -462
475 -476 146 -101 359 -66 451 73 24 37 27 38 44 23 10 -9 35 -22 56 -30 145
-51 332 53 391 218 12 36 22 48 37 48 37 0 140 57 182 101 44 46 93 139 93
177 0 16 6 22 23 22 40 0 143 58 185 104 54 58 81 115 90 184 l7 57 109 56
110 57 40 -42 c40 -40 96 -66 146 -66 22 0 205 60 384 126 56 21 101 45 122
65 43 41 68 107 62 156 -5 36 -429 1256 -470 1356 -36 84 -124 137 -208 123
-47 -7 -426 -141 -456 -160 -38 -26 -74 -81 -82 -127 l-8 -44 -139 -22 c-515
-83 -704 -116 -801 -140 l-111 -28 -425 94 -424 93 -11 49 c-15 60 -44 100
-91 127 -57 31 -440 162 -475 162 -18 0 -55 -11 -83 -24z m305 -195 c96 -34
180 -66 187 -72 8 -6 14 -24 14 -38 0 -25 -437 -1289 -461 -1333 -6 -11 -21
-18 -39 -18 -31 0 -395 123 -417 141 -7 6 -13 24 -13 38 0 21 403 1193 452
1314 13 34 43 47 78 37 14 -5 103 -35 199 -69z m2871 49 c5 -9 113 -313 240
-674 214 -611 230 -660 216 -681 -11 -16 -65 -40 -205 -88 -199 -70 -244 -79
-260 -49 -22 42 -461 1311 -461 1334 0 14 6 31 13 37 11 8 319 120 397 143 23
7 50 -3 60 -22z m-387 -855 c102 -291 187 -537 189 -544 2 -10 -40 -37 -127
-82 l-130 -68 -295 292 c-323 320 -367 354 -495 382 -116 26 -203 5 -349 -84
-171 -105 -331 -125 -465 -56 -80 40 -140 121 -126 166 4 11 100 74 228 150
122 72 254 151 292 174 80 49 122 61 365 104 396 70 715 117 721 107 4 -6 90
-249 192 -541z m-1806 468 c266 -59 341 -79 331 -89 -7 -6 -97 -61 -200 -123
-103 -61 -199 -125 -215 -141 -79 -84 -67 -202 33 -309 99 -107 235 -158 394
-148 105 7 197 36 298 95 144 84 152 87 227 87 126 0 146 -15 497 -363 169
-168 310 -314 313 -323 15 -47 -76 -153 -142 -165 -23 -4 -41 -1 -61 12 -15 9
-112 99 -215 198 -103 100 -199 185 -213 190 -38 12 -78 -20 -82 -66 -3 -33 5
-43 202 -232 113 -109 208 -206 211 -217 11 -34 -5 -76 -46 -123 -42 -47 -94
-72 -133 -62 -13 3 -115 94 -227 201 -189 180 -207 194 -241 195 -27 0 -41 -6
-52 -22 -37 -52 -29 -64 189 -273 175 -169 205 -202 205 -227 0 -65 -59 -127
-142 -149 -44 -12 -48 -11 -85 13 -21 15 -135 120 -253 233 -118 114 -225 211
-237 216 -49 19 -103 -31 -90 -83 4 -13 85 -99 182 -191 96 -93 175 -175 175
-183 0 -32 -32 -74 -73 -99 -58 -33 -125 -34 -181 -1 -23 13 -240 229 -484
480 -363 374 -461 468 -542 527 -55 39 -102 74 -104 78 -4 5 337 995 387 1124
3 9 12 17 19 17 7 0 167 -35 355 -77z"/>
</g>
</svg>
