<?xml version="1.0" standalone="no"?><!DOCTYPE svg PUBLIC "-//W3C//DTD SVG 1.1//EN" "http://www.w3.org/Graphics/SVG/1.1/DTD/svg11.dtd"><svg t="1723664822696" class="icon" viewBox="0 0 1024 1024" version="1.1" xmlns="http://www.w3.org/2000/svg" p-id="14373" xmlns:xlink="http://www.w3.org/1999/xlink" width="64" height="64"><path d="M565.248 20.48H372.736c-45.056 0-81.92 36.864-81.92 77.824v57.344H151.552c-65.536 0-122.88 53.248-122.88 118.784v40.96c114.688 49.152 229.376 81.92 348.16 90.112v-4.096c0-45.056 36.864-81.92 81.92-81.92s81.92 36.864 81.92 81.92v8.192C655.36 401.408 778.24 368.64 901.12 319.488v-40.96c0-65.536-53.248-118.784-118.784-118.784h-139.264V98.304c0-40.96-36.864-77.824-77.824-77.824z m-4.096 135.168H372.736V102.4h188.416v53.248z" p-id="14374" fill="#0171E3"></path><path d="M614.4 663.552l53.248-8.192 24.576-49.152c20.48-40.96 57.344-65.536 102.4-65.536s81.92 24.576 102.4 65.536l8.192 12.288V405.504c-122.88 45.056-241.664 73.728-360.448 81.92v4.096c0 45.056-36.864 81.92-81.92 81.92s-81.92-36.864-81.92-81.92c-118.784-8.192-233.472-32.768-348.16-81.92v286.72c0 65.536 53.248 118.784 122.88 118.784h368.64c-8.192-24.576-8.192-49.152 0-73.728 12.288-40.96 45.056-69.632 90.112-77.824z" p-id="14375" fill="#0171E3"></path><path d="M983.04 798.72c20.48-16.384 8.192-49.152-16.384-53.248l-81.92-12.288c-12.288 0-20.48-8.192-24.576-16.384l-36.864-73.728a31.5392 31.5392 0 0 0-57.344 0l-36.864 73.728c-4.096 8.192-12.288 16.384-24.576 16.384l-81.92 12.288c-24.576 4.096-36.864 36.864-16.384 53.248l57.344 57.344c8.192 8.192 12.288 16.384 8.192 28.672l-12.288 81.92c-4.096 24.576 24.576 45.056 45.056 32.768l73.728-36.864c8.192-4.096 20.48-4.096 28.672 0l73.728 36.864c24.576 12.288 49.152-8.192 45.056-32.768l-12.288-81.92c0-12.288 0-20.48 8.192-28.672l61.44-57.344z" p-id="14376" fill="#0171E3"></path></svg>