<?xml version="1.0" standalone="no"?><!DOCTYPE svg PUBLIC "-//W3C//DTD SVG 1.1//EN" "http://www.w3.org/Graphics/SVG/1.1/DTD/svg11.dtd"><svg t="1764626803154" class="icon" viewBox="0 0 1024 1024" version="1.1" xmlns="http://www.w3.org/2000/svg" p-id="7676" xmlns:xlink="http://www.w3.org/1999/xlink" width="200" height="200"><path d="M257.1 511.8l-0.2 12.4c-0.2 10 5.5 19.2 14.5 23.5l112 53.6c9.2 4.4 20.2 0.5 24.6-8.7 1.2-2.4 1.8-5 1.8-7.7l0.2-12.4c0.2-10-5.5-19.2-14.5-23.5l-112-53.6c-9.2-4.4-20.2-0.5-24.6 8.7-1.1 2.4-1.7 5-1.8 7.7z m192.3 462.9L90.9 781.5c-8.3-4.5-13.5-13.1-13.5-22.5V344.5c0-14.1 11.5-25.6 25.6-25.6 3.9 0 7.7 0.9 11.1 2.5l358.5 172.8c8.9 4.3 14.5 13.2 14.5 23.1v434.8c0 14.1-11.5 25.6-25.6 25.6-4.2 0.1-8.4-1-12.1-3zM126.3 230.1L499.2 52.9c6.9-3.3 14.9-3.3 21.9-0.1l377.4 176.8c12.8 6 18.3 21.2 12.3 34-2.5 5.4-6.9 9.8-12.3 12.3L521.4 452.2c-6.9 3.2-14.9 3.2-21.8 0L126.4 276.4c-12.8-6-18.3-21.3-12.3-34.1 2.6-5.4 6.9-9.7 12.2-12.2z m412 722.1V517.3c0-9.8 5.6-18.8 14.5-23.1l358.5-172.8c12.7-6.1 28-0.8 34.2 11.9 1.7 3.5 2.5 7.3 2.5 11.1V759c0 9.4-5.2 18.1-13.5 22.5L576.1 974.7c-12.4 6.7-28 2.1-34.7-10.4-2-3.7-3.1-7.9-3.1-12.1z" fill="#ffffff" p-id="7677"></path></svg>