<?xml version="1.0" standalone="no"?><!DOCTYPE svg PUBLIC "-//W3C//DTD SVG 1.1//EN" "http://www.w3.org/Graphics/SVG/1.1/DTD/svg11.dtd"><svg t="1723028740631" class="icon" viewBox="0 0 1024 1024" version="1.1" xmlns="http://www.w3.org/2000/svg" p-id="7552" xmlns:xlink="http://www.w3.org/1999/xlink" width="64" height="64"><path d="M246.570667 934.997333A21.376 21.376 0 0 0 256 917.333333V155.221333a21.333333 21.333333 0 0 0-21.333333-21.333333h-42.666667a21.333333 21.333333 0 0 0-21.333333 21.333333v533.333334H67.626667a12.8 12.8 0 0 0-10.410667 20.266666L213.546667 925.866667a21.333333 21.333333 0 0 0 4.096 4.266666l0.853333 1.066667a21.333333 21.333333 0 0 0 28.074667 3.797333zM917.333333 304.554667a21.333333 21.333333 0 0 0 21.333334-21.333334v-42.666666a21.333333 21.333333 0 0 0-21.333334-21.333334h-554.666666a21.333333 21.333333 0 0 0-21.333334 21.333334v42.666666a21.333333 21.333333 0 0 0 21.333334 21.333334h554.666666z m-128 277.333333a21.333333 21.333333 0 0 0 21.333334-21.333333v-42.666667a21.333333 21.333333 0 0 0-21.333334-21.333333h-426.666666a21.333333 21.333333 0 0 0-21.333334 21.333333v42.666667a21.333333 21.333333 0 0 0 21.333334 21.333333h426.666666z m-128 277.333333a21.333333 21.333333 0 0 0 21.333334-21.333333v-42.666667a21.333333 21.333333 0 0 0-21.333334-21.333333h-298.666666a21.333333 21.333333 0 0 0-21.333334 21.333333v42.666667a21.333333 21.333333 0 0 0 21.333334 21.333333h298.666666z" fill="#0171E3" p-id="7553"></path></svg>