<?xml version="1.0" standalone="no"?><!DOCTYPE svg PUBLIC "-//W3C//DTD SVG 1.1//EN" "http://www.w3.org/Graphics/SVG/1.1/DTD/svg11.dtd"><svg t="1723028786657" class="icon" viewBox="0 0 1024 1024" version="1.1" xmlns="http://www.w3.org/2000/svg" p-id="7870" xmlns:xlink="http://www.w3.org/1999/xlink" width="64" height="64"><path d="M246.570667 137.514667A21.333333 21.333333 0 0 1 256 155.221333V917.333333a21.333333 21.333333 0 0 1-21.333333 21.333334h-42.666667a21.333333 21.333333 0 0 1-21.333333-21.333334V384H67.626667a12.8 12.8 0 0 1-10.410667-20.266667l156.330667-217.130666a21.333333 21.333333 0 0 1 4.096-4.266667l0.853333-1.024a21.333333 21.333333 0 0 1 28.074667-3.84v0.042667zM917.333333 768a21.333333 21.333333 0 0 1 21.333334 21.333333v42.666667a21.333333 21.333333 0 0 1-21.333334 21.333333h-554.666666a21.333333 21.333333 0 0 1-21.333334-21.333333v-42.666667a21.333333 21.333333 0 0 1 21.333334-21.333333h554.666666z m-128-277.333333a21.333333 21.333333 0 0 1 21.333334 21.333333v42.666667a21.333333 21.333333 0 0 1-21.333334 21.333333h-426.666666A21.333333 21.333333 0 0 1 341.333333 554.666667v-42.666667a21.333333 21.333333 0 0 1 21.333334-21.333333h426.666666z m-128-277.333334a21.333333 21.333333 0 0 1 21.333334 21.333334v42.666666a21.333333 21.333333 0 0 1-21.333334 21.333334h-298.666666a21.333333 21.333333 0 0 1-21.333334-21.333334v-42.666666a21.333333 21.333333 0 0 1 21.333334-21.333334h298.666666z" fill="#0171E3" p-id="7871"></path></svg>