<?xml version="1.0" standalone="no"?><!DOCTYPE svg PUBLIC "-//W3C//DTD SVG 1.1//EN" "http://www.w3.org/Graphics/SVG/1.1/DTD/svg11.dtd"><svg t="1730747133439" class="icon" viewBox="0 0 1024 1024" version="1.1" xmlns="http://www.w3.org/2000/svg" p-id="4898" xmlns:xlink="http://www.w3.org/1999/xlink" width="64" height="64"><path d="M638.96 279.46c0-16.79-13.59-32.6-30.39-32.6H243.9c-16.8 0-30.39 15.8-30.39 32.6s13.59 32.6 30.39 32.6h364.67c16.8 0 30.39-15.81 30.39-32.6zM239.74 436.52c-14.5 0-26.23 16.29-26.23 33.09 0 16.79 11.73 33.09 26.23 33.09h209.83c14.49 0 26.23-16.29 26.23-33.09 0-16.8-11.73-33.09-26.23-33.09H239.74z m139.93 191.64H237.25c-13.12 0-23.74 16.29-23.74 33.09 0 16.8 10.61 33.09 23.74 33.09h142.42c13.12 0 23.74-16.29 23.74-33.09 0-16.79-10.62-33.09-23.74-33.09z m46.57 0" p-id="4899" fill="#03481E"></path><path d="M376.2 876.67H180.21c-30.56 0-55.44-23.77-55.44-53V200.33c0-29.23 24.87-53 55.44-53h557.75c30.51 0 55.38 23.77 55.38 53v129.33c0 16.8 13.59 30.39 30.39 30.39s30.39-13.59 30.39-30.39V200.33c0-62.74-52.11-113.78-116.16-113.78H180.21C116.11 86.55 64 137.59 64 200.33v623.34c0 62.74 52.11 113.78 116.21 113.78H376.2c16.8 0 30.39-13.59 30.39-30.39S393 876.67 376.2 876.67z m347.31-130.5" p-id="4900" fill="#03481E"></path><path d="M960 790.26c0-83.39-53.85-115.54-53.85-115.54h-0.11c0.12-17.43-2.26-152.11-104.09-152.11h-217.7c-101.83 0-104.18 134.69-104.06 152.11h-0.23s-55.44 9.13-55.44 114.91c0 30.68 6.87 50.64 24.58 63.64v31.27c0 23.75 20.77 44.78 45.25 44.78h0.75c24.48 0 41.01-21.03 41.01-44.78v-9.62c37.93 2.61 87.44 2.62 151.32 2.65v-1.27h8.04v1.27c64.83-0.03 115.03 0.02 153.39-2.62v9.59c0 23.75 19.32 44.78 43.8 44.78h0.75c24.48 0 42.46-21.03 42.46-44.78v-31.47c17.3-12.92 24.13-32.65 24.13-62.81z m-34.21-38.86c0 19.56-15.85 35.41-35.41 35.41-19.56 0-35.41-15.85-35.41-35.41 0-19.56 15.85-35.41 35.41-35.41 19.56 0 35.41 15.85 35.41 35.41zM602.16 551.05h181.88c90.96 0 86.93 118.72 86.93 118.72H515.25s-4.04-118.72 86.91-118.72zM492.08 715.99c19.56 0 35.41 15.85 35.41 35.41 0 19.56-15.85 35.41-35.41 35.41-19.56 0-35.41-15.85-35.41-35.41 0-19.56 15.85-35.41 35.41-35.41z m294.46 108.98H612.53c-18.83 0-34.1-15.18-34.1-34.01s15.27-34.01 34.1-34.01h174.01c18.83 0 34.1 15.18 34.1 34.01 0 18.84-15.26 34.01-34.1 34.01z m0 0" p-id="4901" fill="#03481E"></path></svg>