<?xml version="1.0" standalone="no"?><!DOCTYPE svg PUBLIC "-//W3C//DTD SVG 1.1//EN" "http://www.w3.org/Graphics/SVG/1.1/DTD/svg11.dtd"><svg t="1721587553148" class="icon" viewBox="0 0 1024 1024" version="1.1" xmlns="http://www.w3.org/2000/svg" p-id="11232" xmlns:xlink="http://www.w3.org/1999/xlink" width="64" height="64"><path d="M93.090909 688.872727V288.581818C93.090909 256 116.363636 232.727273 148.945455 232.727273h726.10909c32.581818 0 55.854545 23.272727 55.854546 55.854545v232.727273h46.545454v-232.727273C977.454545 232.727273 930.909091 186.181818 875.054545 186.181818H148.945455C93.090909 186.181818 46.545455 232.727273 46.545455 288.581818v404.945455C46.545455 744.727273 93.090909 791.272727 148.945455 791.272727h353.745454v-46.545454H148.945455c-32.581818 0-55.854545-23.272727-55.854546-55.854546z" p-id="11233"></path><path d="M791.272727 535.272727c-116.363636 0-209.454545 93.090909-209.454545 209.454546s93.090909 209.454545 209.454545 209.454545 209.454545-93.090909 209.454546-209.454545-93.090909-209.454545-209.454546-209.454546z m0 372.363637c-88.436364 0-162.909091-74.472727-162.909091-162.909091s74.472727-162.909091 162.909091-162.909091 162.909091 74.472727 162.909091 162.909091-74.472727 162.909091-162.909091 162.909091zM605.090909 446.836364L437.527273 335.127273C428.218182 330.472727 418.909091 325.818182 409.6 325.818182c-27.927273 0-46.545455 18.618182-46.545455 46.545454v223.418182c0 9.309091 4.654545 18.618182 9.309091 27.927273 9.309091 13.963636 23.272727 18.618182 37.236364 18.618182 9.309091 0 18.618182-4.654545 23.272727-9.309091l167.563637-111.709091 13.963636-13.963636c4.654545-9.309091 9.309091-23.272727 4.654545-37.236364 0-4.654545-4.654545-18.618182-13.963636-23.272727zM409.6 372.363636l167.563636 111.709091-167.563636 111.709091V372.363636" p-id="11234"></path><path d="M870.4 744.727273h-46.545455c-13.963636 0-23.272727-9.309091-23.272727-23.272728V651.636364c0-13.963636-9.309091-23.272727-23.272727-23.272728s-23.272727 9.309091-23.272727 23.272728v69.818181c0 37.236364 32.581818 69.818182 69.818181 69.818182h46.545455c13.963636 0 23.272727-9.309091 23.272727-23.272727s-9.309091-23.272727-23.272727-23.272727z" p-id="11235"></path></svg>