<?xml version="1.0" standalone="no"?><!DOCTYPE svg PUBLIC "-//W3C//DTD SVG 1.1//EN" "http://www.w3.org/Graphics/SVG/1.1/DTD/svg11.dtd"><svg t="1721739786170" class="icon" viewBox="0 0 1024 1024" version="1.1" xmlns="http://www.w3.org/2000/svg" p-id="4853" xmlns:xlink="http://www.w3.org/1999/xlink" width="64" height="64"><path d="M313.577179 513.493736l-20.385104 20.541312 149.373606 148.221573L800.105562 329.98875l-20.40463-20.853727-337.135251 332.195183z" p-id="4854" fill="#2c2c2c"></path><path d="M520.767157 6.580249L511.980474 0l-8.786683 6.580249a1276.138741 1276.138741 0 0 1-432.714833 201.117404L59.036745 210.216502v11.715577C59.036745 464.717884 59.036745 970.205976 510.262189 1024.019526h3.456096c451.225445-53.794024 451.225445-558.9697 451.225444-802.087447v-11.715577l-11.442213-2.518849A1276.138741 1276.138741 0 0 1 520.767157 6.580249z m-8.786683 988.013653C94.476365 943.709246 88.520947 487.934252 88.520947 233.33524A1309.332876 1309.332876 0 0 0 511.980474 36.396392 1322.669107 1322.669107 0 0 0 935.361898 233.33524c0 254.55996-5.955418 710.334954-423.459528 761.512499z" p-id="4855" fill="#2c2c2c"></path></svg>