<?xml version="1.0" standalone="no"?><!DOCTYPE svg PUBLIC "-//W3C//DTD SVG 1.1//EN" "http://www.w3.org/Graphics/SVG/1.1/DTD/svg11.dtd"><svg t="1723230450570" class="icon" viewBox="0 0 1024 1024" version="1.1" xmlns="http://www.w3.org/2000/svg" p-id="7726" xmlns:xlink="http://www.w3.org/1999/xlink" width="64" height="64"><path d="M598.44 500.68a8 8 0 0 1-7.29-4.7l-76.27-152.54a8 8 0 1 1 14.31-7.16l76.41 152.81a8 8 0 0 1-7.16 11.58zM487.76 328h-67.43a8 8 0 0 1 0-16h67.43a8 8 0 1 1 0 16zM896.17 904.17a8 8 0 0 1-6.28-3L648.64 595.79a8 8 0 0 1 12.55-9.92l241.26 305.34a8 8 0 0 1-6.27 13zM696.7 441.28a8 8 0 0 1-7.16-4.43l-74.1-148.4a8 8 0 1 1 14.31-7.15l74.1 148.4a8 8 0 0 1-7.15 11.58z" p-id="7727" fill="#2c2c2c"></path><path d="M677.5 602a89.5 89.5 0 1 1 89.5-89.5 89.6 89.6 0 0 1-89.5 89.5z m0-163a73.5 73.5 0 1 0 73.5 73.5 73.58 73.58 0 0 0-73.5-73.5zM544.5 351a89.5 89.5 0 1 1 89.5-89.5 89.6 89.6 0 0 1-89.5 89.5z m0-163a73.5 73.5 0 1 0 73.5 73.5 73.58 73.58 0 0 0-73.5-73.5z" p-id="7728" fill="#2c2c2c"></path><path d="M333.14 457.53c-7.31 0-17-0.12-29.94-0.36-23.48-0.43-47-1.16-47.2-1.17a8 8 0 0 1-5.41-2.34l-64.22-64.22a8 8 0 0 1-2.34-5.66v-192a87.21 87.21 0 0 1 8.85-35.48C201.2 139.74 218.9 120 256 120h97c1.23 0 31.91 0 53 21 11 10.92 17.25 25.28 18.68 42.78h77.59a8 8 0 0 1 0 16H425v184a8 8 0 0 1-2.34 5.66l-64.27 64.26a8.06 8.06 0 0 1-0.58 0.63c-2.23 2.17-3.3 3.2-24.67 3.2z m12.27-13.1a7.8 7.8 0 0 0-1.11 4.07 8 8 0 0 1 1.1-4.07z m-85.74-4.32c32.77 1 78.09 1.88 88.62 1.09L409 380.48v-188.7c0-23.12-9.12-39.46-27.1-48.56A71.86 71.86 0 0 0 353 136h-97c-55.07 0-56 53.54-56 55.81v188.67z" p-id="7729" fill="#2c2c2c"></path><path d="M417 391.79H256a8 8 0 1 1 0-16h161a8 8 0 0 1 0 16zM384.07 199.78H192a8 8 0 0 1 0-16h192a8 8 0 0 1 0 16zM339.75 520.13H270a8 8 0 0 1-8-8v-63.92a8 8 0 0 1 16 0v55.92h53.78l0.22-56a8 8 0 0 1 8-8 8 8 0 0 1 8 8l-0.25 63.92a8 8 0 0 1-8 8.08z" p-id="7730" fill="#2c2c2c"></path><path d="M304.51 839.72a8 8 0 0 1-8-8V517.16a8 8 0 0 1 16 0v314.56a8 8 0 0 1-8 8z" p-id="7731" fill="#2c2c2c"></path><path d="M704.14 903.64H128a8 8 0 0 1-8-8v-63.92a8 8 0 0 1 8-8h576.14a8 8 0 0 1 8 8v63.92a8 8 0 0 1-8 8z m-568.14-16h560.14v-47.92H136zM326 823a8 8 0 0 1-5.66-13.66l63.5-63.5a8 8 0 0 1 11.31 11.31l-63.5 63.5A8 8 0 0 1 326 823zM406 742a8 8 0 0 1-5.66-13.66l128.5-128.5a8 8 0 0 1 11.31 11.31l-128.5 128.5A8 8 0 0 1 406 742zM330 769a8 8 0 0 1-7.27-11.33l16-35a8 8 0 0 1 14.55 6.65l-16 35A8 8 0 0 1 330 769zM279 815a8 8 0 0 1-5.66-2.34l-47-47a8 8 0 0 1 11.31-11.31l47 47A8 8 0 0 1 279 815zM205 744a8 8 0 0 1-5.66-2.34l-77-77a8 8 0 0 1 11.31-11.31l77 77A8 8 0 0 1 205 744zM277 766a8 8 0 0 1-6.75-3.7l-58-91a8 8 0 0 1 13.49-8.6l58 91A8 8 0 0 1 277 766zM354 715a8 8 0 0 1-7.3-11.26l49-110a8 8 0 1 1 14.62 6.51l-49 110A8 8 0 0 1 354 715zM896.18 711.88a8 8 0 0 1-6.4-3.2L752.19 525.51a8 8 0 0 1 12.81-9.6l137.57 183.17a8 8 0 0 1-6.39 12.8zM544.5 320a58.5 58.5 0 1 1 58.5-58.5 58.57 58.57 0 0 1-58.5 58.5z m0-101a42.5 42.5 0 1 0 42.5 42.5 42.55 42.55 0 0 0-42.5-42.5zM677.5 571a58.5 58.5 0 1 1 58.5-58.5 58.57 58.57 0 0 1-58.5 58.5z m0-101a42.5 42.5 0 1 0 42.5 42.5 42.55 42.55 0 0 0-42.5-42.5z" p-id="7732" fill="#2c2c2c"></path></svg>