<?xml version="1.0" standalone="no"?><!DOCTYPE svg PUBLIC "-//W3C//DTD SVG 1.1//EN" "http://www.w3.org/Graphics/SVG/1.1/DTD/svg11.dtd"><svg t="1730747954610" class="icon" viewBox="0 0 1024 1024" version="1.1" xmlns="http://www.w3.org/2000/svg" p-id="2917" xmlns:xlink="http://www.w3.org/1999/xlink" width="64" height="64"><path d="M770.265639 94.454476C747.248174 94.598229 728.408015 113.286179 728.188157 136.20217L727.782265 177.704639C727.562407 200.62063 746.038954 219.088721 769.064875 218.953424L904.210035 218.107815C896.430436 235.628825 885.445981 252.109736 870.99453 266.501993 809.095984 328.121489 709.525576 328.890993 648.582567 268.227035 587.648015 207.563077 588.425975 108.423929 650.324521 46.804434 712.214611-14.823518 811.793475-15.593022 872.728028 45.070936 887.145654 59.420913 897.986356 75.969473 905.503816 93.617323L770.265639 94.454476ZM483.443672 245.40406C483.443672 245.40406 417.951289 244.558451 351.334247 245.928337 285.452884 247.281311 218.438406 250.849779 218.438406 250.849779 168.674342 251.872965 132.575313 212.154731 132.321631 162.627438 132.067948 113.091689 167.761085 72.502478 217.525149 71.479291 217.525149 71.479291 284.767941 72.121954 352.509643 73.322718 418.314901 74.489658 482.530415 66.033572 482.530415 66.033572 532.294479 65.010386 572.841409 104.331184 573.086635 153.866933 573.340318 203.394227 533.19928 244.380873 483.443672 245.40406ZM250.867494 133.572328C235.815662 118.588144 211.216909 118.782634 195.928306 134.003588 180.639704 149.224542 180.445214 173.713366 195.497046 188.69755 210.548878 203.69019 235.147631 203.4957 250.436234 188.274745 265.733293 173.053791 265.927783 148.556512 250.867494 133.572328ZM214.853026 441.382299C233.913043 406.720804 257.72538 373.226249 312.647656 360.203878 367.240144 347.257611 514.291472 348.999564 514.291472 348.999564L673.09676 354.597493C673.09676 354.597493 756.363834 367.645233 787.651351 404.987307 819.201006 442.642256 857.507074 567.34415 857.507074 567.34415L910.594379 570.143114C910.594379 570.143114 938.651671 580.603292 924.572289 606.538107 910.48445 632.464465 891.035453 654.1205 891.035453 654.1205 891.035453 654.1205 905.782867 703.554777 913.393344 735.298922 920.995365 767.043067 923.050193 837.034087 916.183852 864.068193 909.31751 891.093843 896.624926 911.650587 896.624926 911.650587L896.624926 1001.225901C896.624926 1001.225901 890.629561 1022.746639 874.275492 1023.626072 857.921422 1024.505505 796.039788 1023.626072 796.039788 1023.626072 796.039788 1023.626072 762.587513 1020.336655 762.502952 992.829008 762.426848 965.329818 762.502952 962.040401 762.502952 962.040401L712.214611 962.040401 298.678202 962.040401 256.761386 962.040401 256.761386 1001.225901C256.761386 1001.225901 253.006884 1023.761369 226.023515 1023.626072 199.048602 1023.482318 144.997303 1023.626072 144.997303 1023.626072 144.997303 1023.626072 122.419554 1019.905394 122.639413 995.627973 122.859271 971.350551 122.639413 911.650587 122.639413 911.650587 122.639413 911.650587 95.858989 860.711127 97.49947 819.276308 99.131495 777.841488 104.58567 730.555058 117.058396 693.314457 129.522666 656.0654 131.027849 654.1205 131.027849 654.1205 131.027849 654.1205 101.685232 629.750062 97.49947 609.337071 93.305252 588.915624 93.043113 568.291232 125.438377 567.34415 157.833641 566.397068 167.346737 564.545186 167.346737 564.545186 167.346737 564.545186 195.784553 476.035338 214.853026 441.382299ZM791.236731 813.678379C821.661727 813.678379 846.328129 789.240292 846.328129 759.094347 846.328129 728.948402 821.661727 704.510314 791.236731 704.510314 760.803279 704.510314 736.136878 728.948402 736.136878 759.094347 736.136878 789.240292 760.803279 813.678379 791.236731 813.678379ZM357.35498 766.966962C357.35498 777.308755 365.743417 785.688736 376.102122 785.688736L648.760145 785.688736C659.110394 785.688736 667.507287 777.308755 667.507287 766.966962L667.507287 759.618624C667.507287 749.285287 659.110394 740.89685 648.760145 740.89685L376.102122 740.89685C365.743417 740.89685 357.35498 749.285287 357.35498 759.618624L357.35498 766.966962ZM826.769203 600.940178C826.769203 600.940178 781.60525 486.943688 748.220624 454.353934 711.428196 418.449395 629.336517 404.987307 502.647443 404.987307 393.656955 404.987307 314.440346 413.325007 274.189378 454.353934 249.117085 479.908225 206.464589 600.940178 206.464589 600.940178L826.769203 600.940178ZM228.036063 813.678379C258.461059 813.678379 283.135917 789.240292 283.135917 759.094347 283.135917 728.948402 258.461059 704.510314 228.036063 704.510314 197.602611 704.510314 172.93621 728.948402 172.93621 759.094347 172.93621 789.240292 197.602611 813.678379 228.036063 813.678379Z" p-id="2918" fill="#FF6500"></path></svg>