<svg xmlns="http://www.w3.org/2000/svg" width="588.688" height="25.75" viewBox="0 0 588.688 25.75">
  <defs>
    <style>
      .cls-1 {
        fill: #bdec01;
        fill-rule: evenodd;
      }
    </style>
  </defs>
  <path id="bgtop2.svg" class="cls-1" d="M883.894,400H562.308l11.072-25.744H895.7L883.894,400h0Zm-360.847,0H498.46q5.535-12.872,11.072-25.744h24.587Q528.583,387.128,523.047,400h0Zm35.487,0H530.37l11.072-25.744h28.164L558.534,400h0Zm-70.975,0H466.55q5.535-12.872,11.073-25.744h21.008Q493.1,387.128,487.559,400h0Zm-35.487,0H434.639q5.538-12.872,11.073-25.744h17.432Q457.609,387.128,452.072,400h0Zm-35.488,0H402.73q5.536-12.872,11.072-25.744h13.855L416.584,400h0ZM381.1,400H370.82l11.073-25.744H392.17Q386.632,387.128,381.1,400h0Zm-35.488,0h-6.7q5.536-12.872,11.073-25.744h6.7Q351.145,387.128,345.609,400h0Zm-35.487,0H307l11.072-25.744h3.122L310.122,400h0Z" transform="translate(-307 -374.25)"/>
</svg>
