<svg xmlns="http://www.w3.org/2000/svg" width="759.69" height="64.688" viewBox="0 0 759.69 64.688">
  <defs>
    <style>
      .cls-1 {
        fill: #232423;
        fill-rule: evenodd;
      }
    </style>
  </defs>
  <path id="bgtop10.svg" class="cls-1" d="M1254.68,625H748.838l27.891-64.689H1254.68V625h0ZM734.423,560.31h37.309L743.841,625H706.532l27.891-64.689h0Zm-42.307,0h31.222L695.447,625H664.225l27.891-64.689h0Zm-42.306,0h25.134Q661,592.655,647.054,625H621.919L649.81,560.31h0Zm-42.306,0h19.051L598.664,625H579.613L607.5,560.31h0Zm-42.307,0h12.964L550.27,625H537.306L565.2,560.31h0Zm-42.306,0h6.876L501.876,625H495l27.891-64.689h0Z" transform="translate(-495 -560.312)"/>
</svg>
